<?xml version="1.0" standalone="no"?>
<!DOCTYPE svg PUBLIC "-//W3C//DTD SVG 1.1//EN" "http://www.w3.org/Graphics/SVG/1.1/DTD/svg11.dtd" >
<svg>
<metadata>
Created by FontForge 20090622 at Fri Nov 10 20:52:45 2017
 By deploy user
Copyright &#194;&#169; 1991, 1992, 2002 Adobe Systems Incorporated.  All Rights Reserved. &#194;&#169; 1981, 2002 Heidelberger Druckmaschinen AG. All rights reserved.
</metadata>
<defs>
<font id="CaeciliaLTStd-Roman" horiz-adv-x="314" >
  <font-face 
    font-family="Caecilia LT Std Roman"
    font-weight="400"
    font-stretch="normal"
    units-per-em="1000"
    panose-1="0 0 5 0 0 0 0 0 0 0"
    ascent="769"
    descent="-231"
    x-height="516"
    cap-height="700"
    bbox="-167 -270 1136 926"
    underline-thickness="50"
    underline-position="-50"
    unicode-range="U+0020-U+FB02"
  />
<missing-glyph horiz-adv-x="500" 
d="M0 0v700h500v-700h-500zM250 395l170 255h-340zM280 350l170 -255v510zM80 50h340l-170 255zM50 605v-510l170 255z" />
    <glyph glyph-name="f_i" unicode="fi" horiz-adv-x="630" 
d="M124 63l2 390h-92v63h92l2 73q2 91 62 139.5t158 48.5q47 0 122 -15v-68q-55 15 -107 15q-70 0 -110.5 -27.5t-42.5 -97.5l-2 -68h310l-4 -453h82v-63h-236v63h72l4 390h-228l-2 -390h84v-63h-236v63h70z" />
    <glyph glyph-name="f_l" unicode="fl" horiz-adv-x="648" 
d="M34 453v63h92l2 73q2 91 62 139.5t158 48.5q73 0 115 -14l70 6l-4 -706h77v-63h-230v63h71l4 637q-41 9 -88 9q-152 0 -153 -125l-2 -68h140v-63h-140l-2 -390h84v-63h-236v63h70l2 390h-92z" />
    <glyph glyph-name=".notdef" horiz-adv-x="500" 
d="M0 0v700h500v-700h-500zM250 395l170 255h-340zM280 350l170 -255v510zM80 50h340l-170 255zM50 605v-510l170 255z" />
    <glyph glyph-name=".null" horiz-adv-x="0" 
 />
    <glyph glyph-name="nonmarkingreturn" horiz-adv-x="333" 
 />
    <glyph glyph-name="space" unicode=" " horiz-adv-x="278" 
 />
    <glyph glyph-name="exclam" unicode="!" 
d="M125 236l-10 533h92l-10 -533h-72zM95 50q0 26 18.5 44t43.5 18t43.5 -18t18.5 -44t-18.5 -44t-43.5 -18t-43.5 18t-18.5 44z" />
    <glyph glyph-name="quotedbl" unicode="&#x22;" horiz-adv-x="444" 
d="M284 527l-12 122q-4 44 -4 76q0 52 46 52t46 -52q0 -32 -4 -76l-12 -122q-2 -44 -30 -44q-17 0 -22.5 11t-7.5 33zM100 527l-12 122q-4 44 -4 76q0 52 46 52t46 -52q0 -32 -4 -76l-12 -122q-2 -44 -30 -44q-17 0 -22.5 11t-7.5 33z" />
    <glyph glyph-name="numbersign" unicode="#" horiz-adv-x="556" 
d="M237 421l-31 -142h113l31 142h-113zM143 279l31 142h-110v57h122l49 222h63l-49 -222h113l49 222h63l-49 -222h111v-57h-123l-31 -142h110v-57h-122l-49 -222h-63l49 222h-113l-49 -222h-63l49 222h-111v57h123z" />
    <glyph glyph-name="dollar" unicode="$" horiz-adv-x="556" 
d="M251 712v128h63v-128q36 0 91.5 -9t83.5 -21v-141h-74v85q-52 18 -103 18l-2 -249q105 -27 142 -49q76 -45 76 -145q0 -94 -63 -148.5t-159 -64.5v-128h-63v128q-38 0 -115 10.5t-99 22.5v155h82v-97q58 -22 132 -23l2 265q-110 20 -163.5 64t-53.5 127q0 89 65 144.5
t158 55.5zM247 406l2 238q-15 0 -34.5 -4.5t-44 -16.5t-40.5 -38.5t-16 -64.5q0 -29 15 -51.5t40 -35t42.5 -18.5t35.5 -9zM308 310l-2 -251q21 2 42.5 9t43.5 21t36 40.5t14 61.5q0 55 -37 81.5t-97 37.5z" />
    <glyph glyph-name="percent" unicode="%" horiz-adv-x="833" 
d="M205 382q-72 0 -118 46.5t-46 118.5t46 118.5t118 46.5q68 0 113 -46.5t45 -118.5t-45 -118.5t-113 -46.5zM202 445q42 0 64.5 29.5t22.5 72.5t-22.5 72.5t-64.5 29.5t-64.5 -29.5t-22.5 -72.5t22.5 -72.5t64.5 -29.5zM631 -12q-72 0 -118 46.5t-46 118.5t46 118.5
t118 46.5q68 0 113 -46.5t45 -118.5t-45 -118.5t-113 -46.5zM628 51q42 0 64.5 29.5t22.5 72.5t-22.5 72.5t-64.5 29.5t-64.5 -29.5t-22.5 -72.5t22.5 -72.5t64.5 -29.5zM163 -22l450 778l51 -34l-450 -778z" />
    <glyph glyph-name="ampersand" unicode="&#x26;" horiz-adv-x="778" 
d="M282 432q41 27 60 42t35 40t16 53q0 39 -26.5 60.5t-65.5 21.5q-44 0 -72 -24t-28 -66q0 -13 4.5 -26.5t8 -22t16 -23t15.5 -18.5t20 -21zM484 127l-219 219q-58 -37 -84.5 -69t-26.5 -82q0 -63 47 -101t122 -38q96 0 161 71zM326 388l203 -205q50 82 50 175h-77v63h224
v-63h-79q0 -60 -21.5 -121t-49.5 -100l48 -43q38 -34 72 -34q3 0 30 3v-63q-30 -3 -38 -3q-16 0 -29.5 1.5t-26 7l-21 9t-20.5 13.5l-17.5 14.5t-20.5 18.5l-21 20q-89 -93 -224 -93q-62 0 -110 19t-74 49.5t-39 62t-13 62.5q0 39 10.5 69.5t35 56.5t44.5 41.5t59 41.5
q-55 55 -74.5 91t-19.5 78q0 12 1.5 24.5t11.5 37.5t27 43.5t53 33t84 14.5q72 0 117.5 -37t45.5 -108q0 -38 -24.5 -74.5t-50.5 -57.5t-66 -47z" />
    <glyph glyph-name="quotesingle" unicode="'" horiz-adv-x="278" 
d="M109 527l-12 122q-4 44 -4 76q0 52 46 52t46 -52q0 -32 -4 -76l-12 -122q-2 -44 -30 -44q-17 0 -22.5 11t-7.5 33z" />
    <glyph glyph-name="parenleft" unicode="(" 
d="M253 788l57 -38q-69 -85 -109 -226t-40 -265q0 -122 41.5 -264t107.5 -227l-57 -38q-92 129 -135 253t-43 276q0 150 43 274t135 255z" />
    <glyph glyph-name="parenright" unicode=")" 
d="M61 -270l-57 38q69 85 109 226t40 265q0 122 -41.5 264t-107.5 227l57 38q92 -129 135 -253t43 -276q0 -150 -43 -274t-135 -255z" />
    <glyph glyph-name="asterisk" unicode="*" horiz-adv-x="351" 
d="M158 643l-14 126h63l-12 -126l102 69l28 -51l-115 -48l115 -49l-28 -51l-102 67l12 -125h-63l14 125l-104 -67l-28 51l116 49l-116 48l28 51z" />
    <glyph glyph-name="plus" unicode="+" horiz-adv-x="600" 
d="M266 0v219h-219v68h219v219h68v-219h219v-68h-219v-219h-68z" />
    <glyph glyph-name="comma" unicode="," horiz-adv-x="278" 
d="M106 -182l-38 38l34 41q22 26 22 65q0 22 -21 46q-25 28 -25 50q0 24 16 39t41 15q36 0 55.5 -28.5t19.5 -70.5q0 -95 -74 -166z" />
    <glyph glyph-name="hyphen" unicode="-" horiz-adv-x="407" 
d="M74 237v74h259v-74h-259z" />
    <glyph glyph-name="period" unicode="." horiz-adv-x="278" 
d="M77 50q0 26 18.5 44t43.5 18t43.5 -18t18.5 -44t-18.5 -44t-43.5 -18t-43.5 18t-18.5 44z" />
    <glyph glyph-name="slash" unicode="/" horiz-adv-x="370" 
d="M-28 -53l327 830l63 -24l-327 -830z" />
    <glyph glyph-name="zero" unicode="0" horiz-adv-x="556" 
d="M278 644q-48 0 -81.5 -30.5t-49 -79.5t-21.5 -93.5t-6 -90.5t6 -90.5t21.5 -93.5t49 -79.5t81.5 -30.5t81.5 30.5t49 79.5t21.5 93.5t6 90.5t-6 90.5t-21.5 93.5t-49 79.5t-81.5 30.5zM278 712q69 0 119.5 -33t76 -87.5t37 -111.5t11.5 -118q0 -67 -12 -129t-38.5 -119.5
t-76.5 -91.5t-117 -34q-69 0 -119.5 33t-76 87.5t-37 111.5t-11.5 118q0 67 12 129t38.5 119.5t76.5 91.5t117 34z" />
    <glyph glyph-name="one" unicode="1" horiz-adv-x="556" 
d="M60 557l232 143h64l-4 -637h144v-63h-366v63h140l4 554h-2q-5 -7 -17 -15l-158 -102z" />
    <glyph glyph-name="two" unicode="2" horiz-adv-x="556" 
d="M131 504h-82q0 23 11 54.5t34 67.5t69.5 61t107.5 25q102 0 157 -54.5t55 -141.5q0 -165 -231 -368l-92 -81v-2q4 0 12 1t14 1.5t12 0.5h310v-68h-460v58l50 45q8 6 51.5 46.5t103 102.5t85.5 101q33 50 48 85.5t15 83.5q0 53 -33.5 87.5t-93.5 34.5q-41 0 -69 -13.5
t-43 -39.5t-20 -42.5t-11 -44.5z" />
    <glyph glyph-name="three" unicode="3" horiz-adv-x="556" 
d="M185 324v68h28q81 0 127.5 45t46.5 100q0 47 -33 77t-85 30q-55 0 -95.5 -32t-40.5 -86h-78q0 73 56.5 129.5t167.5 56.5q95 0 144.5 -48t49.5 -120q0 -44 -15.5 -78.5t-40 -53t-46.5 -28.5t-44 -13v-2q81 -9 127.5 -52t46.5 -121q0 -38 -14.5 -73t-44 -66t-82.5 -50
t-123 -19q-64 0 -113 11.5t-67 25.5v81q30 -22 80.5 -36t96.5 -14q89 0 135 39t46 104q0 33 -14 57.5t-33.5 37t-49.5 20t-52.5 9t-51.5 1.5h-29z" />
    <glyph glyph-name="four" unicode="4" horiz-adv-x="556" 
d="M330 278l2 329h-2l-232 -332q20 3 40 3h192zM247 0v63h81l2 147h-316v63l304 427h92l-2 -422h134v-68h-134l-2 -147h83v-63h-242z" />
    <glyph glyph-name="five" unicode="5" horiz-adv-x="556" 
d="M460 700v-68h-292l-4 -198q51 -2 90.5 -7t86 -19.5t77 -36.5t51.5 -61.5t21 -92.5q0 -43 -15 -82t-45.5 -73t-84 -54t-122.5 -20q-98 0 -157 26v74q21 -10 68 -21t82 -11q55 0 94.5 15.5t58.5 40.5t27 49t8 49q0 32 -13.5 57.5t-32 41.5t-50 27.5t-56 17t-61.5 8.5
t-56 3.5t-49 0.5l4 334h370z" />
    <glyph glyph-name="six" unicode="6" horiz-adv-x="556" 
d="M497 700l-7 -68q-46 12 -103 12q-125 0 -191.5 -83.5t-66.5 -212.5q74 82 176 82q100 0 153 -59.5t53 -154.5q0 -35 -11.5 -72t-36 -73.5t-71 -59.5t-107.5 -23q-110 0 -175 83.5t-65 237.5q0 183 86 293t256 110q66 0 110 -12zM131 277q0 -40 8.5 -77t25.5 -70.5
t49 -53.5t74 -20q58 0 99.5 42t41.5 118q0 60 -35.5 103t-107.5 43q-53 0 -94.5 -27t-60.5 -58z" />
    <glyph glyph-name="seven" unicode="7" horiz-adv-x="556" 
d="M58 626v74h440v-57l-239 -487q-43 -87 -88 -156h-98q61 85 97 156l215 426q11 21 25 44h-352z" />
    <glyph glyph-name="eight" unicode="8" horiz-adv-x="556" 
d="M42 165q0 73 43.5 116t125.5 77q-71 32 -108 73.5t-37 104.5q0 77 55.5 126.5t156.5 49.5q91 0 153 -40.5t62 -122.5q0 -64 -36.5 -106t-109.5 -78q5 -3 25 -13.5l26 -13.5t22.5 -13t22.5 -15l19 -15.5t18 -18.5t13.5 -20t11.5 -23.5t6 -26.5t3 -32q0 -89 -62 -137.5
t-174 -48.5q-117 0 -176.5 47.5t-59.5 129.5zM229 426l52 -28l63 36q67 39 67 107q0 53 -39 78t-94 25q-54 0 -92 -27.5t-38 -80.5q0 -67 81 -110zM346 286l-71 38q-34 -17 -51.5 -26.5t-44 -29.5t-39 -44.5t-12.5 -53.5q0 -57 41 -85.5t109 -28.5q80 0 117 36.5t37 84.5
q0 63 -86 109z" />
    <glyph glyph-name="nine" unicode="9" horiz-adv-x="556" 
d="M59 0l7 68q46 -12 103 -12q125 0 191.5 83.5t66.5 212.5q-74 -82 -176 -82q-100 0 -153 59.5t-53 154.5q0 35 11.5 72t36 73.5t71 59.5t107.5 23q110 0 175 -83.5t65 -237.5q0 -183 -86 -293t-256 -110q-66 0 -110 12zM425 423q0 40 -8.5 77t-25.5 70.5t-49 53.5t-74 20
q-58 0 -99.5 -42t-41.5 -118q0 -60 35.5 -103t107.5 -43q53 0 94.5 27t60.5 58z" />
    <glyph glyph-name="colon" unicode=":" horiz-adv-x="278" 
d="M77 454q0 26 18.5 44t43.5 18t43.5 -18t18.5 -44t-18.5 -44t-43.5 -18t-43.5 18t-18.5 44zM77 50q0 26 18.5 44t43.5 18t43.5 -18t18.5 -44t-18.5 -44t-43.5 -18t-43.5 18t-18.5 44z" />
    <glyph glyph-name="semicolon" unicode=";" horiz-adv-x="278" 
d="M106 -182l-38 38l34 41q22 26 22 65q0 22 -21 46q-25 28 -25 50q0 24 16 39t41 15q36 0 55.5 -28.5t19.5 -70.5q0 -95 -74 -166zM77 454q0 26 18.5 44t43.5 18t43.5 -18t18.5 -44t-18.5 -44t-43.5 -18t-43.5 18t-18.5 44z" />
    <glyph glyph-name="less" unicode="&#x3c;" horiz-adv-x="600" 
d="M47 222v63l506 229v-68l-424 -193l424 -193v-68z" />
    <glyph glyph-name="equal" unicode="=" horiz-adv-x="600" 
d="M47 319v68h506v-68h-506zM47 119v68h506v-68h-506z" />
    <glyph glyph-name="greater" unicode="&#x3e;" horiz-adv-x="600" 
d="M553 284v-63l-506 -229v68l424 193l-424 193v68z" />
    <glyph glyph-name="question" unicode="?" horiz-adv-x="500" 
d="M101 690l-6 67q59 20 121 20q61 0 105 -18t65.5 -47t30.5 -57t9 -56q0 -99 -110 -178l-36 -26l-45.5 -33t-23.5 -25t-10 -31q0 -22 16 -40l12 -14l-67 -36q-43 43 -43 92q0 40 17.5 62t65.5 56l33 22q105 64 105 143q0 49 -34.5 83.5t-108.5 34.5q-42 0 -96 -19zM123 50
q0 26 18.5 44t43.5 18t43.5 -18t18.5 -44t-18.5 -44t-43.5 -18t-43.5 18t-18.5 44z" />
    <glyph glyph-name="at" unicode="@" horiz-adv-x="800" 
d="M488 389q0 93 -79 93q-60 0 -101 -57t-41 -123q0 -44 20 -68.5t55 -24.5q61 0 103.5 60t42.5 120zM607 537l-68 -244q-16 -57 -16 -67q0 -23 33 -23q42 0 81 60.5t39 138.5q0 106 -76 171t-184 65q-127 0 -209.5 -84.5t-82.5 -206.5q0 -129 82.5 -207t201.5 -78
q164 0 241 90h82q-40 -74 -124 -119t-199 -45q-159 0 -264.5 98t-105.5 265q0 154 105.5 257.5t272.5 103.5q149 0 247.5 -83.5t98.5 -214.5q0 -69 -25 -125t-64 -88t-80 -49t-78 -17q-68 0 -70 58h-2q-50 -58 -120 -58q-57 0 -95.5 43.5t-38.5 114.5q0 104 65.5 183.5
t150.5 79.5q74 0 113 -76l18 57h71z" />
    <glyph glyph-name="A" unicode="A" horiz-adv-x="741" 
d="M265 339h206l-84 233q-9 25 -14 48h-2q-5 -23 -14 -48zM11 0v63h64l260 637h92l236 -637h67v-63h-236v63h74l-75 213h-253l-83 -213h84v-63h-230z" />
    <glyph glyph-name="B" unicode="B" horiz-adv-x="630" 
d="M212 637l-2 -246h50q178 0 178 126q0 34 -11 58.5t-24.5 36t-36.5 17.5t-36 7t-33 1h-85zM210 328l-2 -265h65q35 0 55 1t52.5 8t51 20t32.5 39t14 64q0 133 -184 133h-84zM122 63l4 574h-80v63h244q100 0 146 -22q88 -42 88 -148q0 -67 -37.5 -109t-98.5 -52v-2
q73 1 127.5 -45.5t54.5 -126.5q0 -44 -14 -78t-37 -55.5t-55.5 -36t-67.5 -20t-74 -5.5h-276v63h76z" />
    <glyph glyph-name="C" unicode="C" horiz-adv-x="685" 
d="M635 677v-160h-78v110q-58 17 -131 17q-130 0 -207 -75t-77 -214q0 -144 73.5 -221.5t214.5 -77.5q53 0 117 15l4 116h78l-4 -170q-29 -13 -88.5 -21t-112.5 -8q-177 0 -275.5 90t-98.5 267q0 75 23 140t68.5 116.5t120 81t169.5 29.5q111 0 204 -35z" />
    <glyph glyph-name="D" unicode="D" horiz-adv-x="759" 
d="M209 637l-4 -574h108q152 0 226 74q78 78 78 223q0 143 -81 214q-41 36 -91.5 49.5t-126.5 13.5h-109zM119 63l4 574h-80v63h315q163 0 257 -85.5t94 -254.5q0 -180 -101.5 -270t-283.5 -90h-281v63h76z" />
    <glyph glyph-name="E" unicode="E" horiz-adv-x="574" 
d="M119 63l4 574h-80v63h473v-162h-74v99h-233l-2 -246h220v-63h-220l-2 -265h243l6 109h74l-6 -172h-479v63h76z" />
    <glyph glyph-name="F" unicode="F" horiz-adv-x="556" 
d="M119 63l4 574h-80v63h467l3 -165h-74l-3 102h-227l-2 -257h241v-63h-241l-2 -254h89v-63h-251v63h76z" />
    <glyph glyph-name="G" unicode="G" horiz-adv-x="722" 
d="M625 242v-225q-29 -13 -88.5 -21t-112.5 -8q-177 0 -275.5 90t-98.5 267q0 75 22 140t66.5 116.5t117.5 81t167 29.5q63 0 124 -12t88 -25v-158h-74v104q-46 23 -144 23q-129 0 -202 -74.5t-73 -214.5q0 -144 73.5 -221.5t214.5 -77.5q67 0 117 15v171h-86v63h242v-63
h-78z" />
    <glyph glyph-name="H" unicode="H" horiz-adv-x="778" 
d="M119 63l4 574h-80v63h242v-63h-76l-2 -257h364l2 257h-80v63h242v-63h-76l-4 -574h80v-63h-242v63h76l2 254h-364l-2 -254h80v-63h-242v63h76z" />
    <glyph glyph-name="I" unicode="I" horiz-adv-x="334" 
d="M122 63l4 574h-80v63h242v-63h-76l-4 -574h80v-63h-242v63h76z" />
    <glyph glyph-name="J" unicode="J" horiz-adv-x="315" 
d="M43 637v63h241v-63h-74l-4 -445q-1 -149 -53.5 -230t-182.5 -144l-26 63q174 83 176 309l4 447h-81z" />
    <glyph glyph-name="K" unicode="K" horiz-adv-x="704" 
d="M43 637v63h242v-63h-76l-2 -267l304 267h-85v63h242v-63h-62l-311 -272l317 -302h62v-63h-254v63h82l-295 280l-2 -280h80v-63h-242v63h76l4 574h-80z" />
    <glyph glyph-name="L" unicode="L" horiz-adv-x="556" 
d="M119 63l4 574h-80v63h238v-63h-72l-4 -574h239l6 109h74l-6 -172h-475v63h76z" />
    <glyph glyph-name="M" unicode="M" horiz-adv-x="926" 
d="M35 637v63h189l225 -559q1 -2 11 -43h2q10 41 11 43l225 559h193v-63h-91l6 -574h85v-63h-242v63h75l2 513h-2q-10 -37 -17 -54l-212 -522h-76l-215 527q-3 6 -14 43h-2l-2 -507h85v-63h-236v63h81l6 574h-87z" />
    <glyph glyph-name="N" unicode="N" horiz-adv-x="796" 
d="M119 63l4 574h-93v63h167l381 -512q11 -15 33 -52h2l4 501h-87v63h236v-63h-75l-4 -637h-71l-396 526q-14 20 -27 44h-2l-4 -507h88v-63h-232v63h76z" />
    <glyph glyph-name="O" unicode="O" horiz-adv-x="760" 
d="M50 338q0 166 87 270t243 104q158 0 244 -99.5t86 -250.5q0 -166 -87 -270t-243 -104q-158 0 -244 99.5t-86 250.5zM142 350q0 -80 23.5 -144.5t78.5 -107t136 -42.5t136 42.5t78.5 107t23.5 144.5t-23.5 144.5t-78.5 107t-136 42.5t-136 -42.5t-78.5 -107t-23.5 -144.5z
" />
    <glyph glyph-name="P" unicode="P" horiz-adv-x="574" 
d="M119 63l4 574h-80v63h241q104 0 161 -32q91 -50 91 -166q0 -102 -61.5 -160t-150.5 -58h-117l-2 -221h89v-63h-251v63h76zM209 637l-2 -290h94q71 0 110 39.5t39 106.5q0 90 -63 125q-23 13 -46.5 16t-68.5 3h-63z" />
    <glyph glyph-name="Q" unicode="Q" horiz-adv-x="760" 
d="M835 -104l-3 -63q-18 -9 -60 -9q-43 0 -87.5 16.5t-183.5 79.5l-42 19l-40 19l-45 21.5t-23 8.5q-50 0 -100.5 21t-96.5 61t-75 110t-29 158q0 166 87 270t243 104q158 0 244 -99.5t86 -250.5q0 -131 -56.5 -228.5t-167.5 -129.5v-2q28 -5 155 -69q95 -41 146 -41
q12 0 29 2t19 2zM380 644q-81 0 -136 -42.5t-78.5 -107t-23.5 -144.5t23.5 -144.5t78.5 -107t136 -42.5t136 42.5t78.5 107t23.5 144.5t-23.5 144.5t-78.5 107t-136 42.5z" />
    <glyph glyph-name="R" unicode="R" horiz-adv-x="648" 
d="M212 637l-2 -264h83q72 0 115 34t43 105t-43.5 98t-121.5 27h-74zM46 637v63h234q43 0 75.5 -3t68.5 -14t59.5 -30t38.5 -52.5t15 -80.5q0 -82 -48 -132t-116 -57v-2q45 -2 90 -79l59 -102q35 -59 48.5 -72t42.5 -13h31v-63h-41q-55 0 -79 12t-52 55l-67 115
q-49 83 -72 105.5t-68 22.5h-55l-2 -247h81v-63h-243v63h76l4 574h-80z" />
    <glyph glyph-name="S" unicode="S" horiz-adv-x="593" 
d="M66 23v154h82v-95q44 -26 137 -26q76 0 121 34t45 96q0 51 -39.5 80.5t-96 44t-113 32t-96 59.5t-39.5 111q0 28 6.5 53.5t24.5 53t46 47.5t75 32.5t107 12.5q42 0 99.5 -9.5t88.5 -23.5v-141h-78v87q-45 19 -117 19q-66 0 -113 -29t-47 -92q0 -41 28.5 -68t71 -38
t92.5 -26.5t92.5 -33t71 -58.5t28.5 -101q0 -56 -22.5 -97.5t-61 -65.5t-84.5 -35.5t-99 -11.5q-51 0 -92 6.5t-76.5 17t-41.5 11.5z" />
    <glyph glyph-name="T" unicode="T" horiz-adv-x="668" 
d="M287 63l4 574h-191l-6 -108h-74l6 171h616l6 -171h-74l-6 108h-191l-4 -574h87v-63h-249v63h76z" />
    <glyph glyph-name="U" unicode="U" horiz-adv-x="759" 
d="M274 700v-63h-75q-2 -196 -2 -359q0 -69 7 -107.5t28 -64.5q40 -50 151 -50t156 59q20 26 25 67t6 126l2 329h-87v63h242v-63h-77l-2 -379q0 -66 -11.5 -110.5t-43.5 -83.5q-62 -76 -213 -76q-166 0 -230 87q-24 33 -31.5 76.5t-7.5 134.5q0 137 2 351h-81v63h242z" />
    <glyph glyph-name="V" unicode="V" horiz-adv-x="722" 
d="M315 0l-247 637h-66v63h242v-63h-78l190 -523q3 -8 6.5 -21t4.5 -17h2q1 4 4.5 17t6.5 21l188 523h-84v63h236v-63h-66l-247 -637h-92z" />
    <glyph glyph-name="W" unicode="W" horiz-adv-x="1074" 
d="M291 0l-218 637h-71v63h242v-63h-79l171 -531q3 -8 6.5 -21t4.5 -17h2q1 4 4.5 17t6.5 21l154 405l-40 126h-75v63h236v-63h-75l159 -531q3 -8 6.5 -21t4.5 -17h2q1 4 4.5 17t6.5 21l182 531h-89v63h236v-63h-65l-234 -637h-98l-125 412h-2l-159 -412h-98z" />
    <glyph glyph-name="X" unicode="X" horiz-adv-x="704" 
d="M89 63l218 290l-199 284h-72v63h254v-63h-82q18 -19 26 -32l128 -188l139 192q9 13 24 28h-83v63h230v-63h-66l-204 -276l208 -298h68v-63h-248v63h79q-13 15 -22 28l-140 205l-150 -207q-8 -10 -22 -26h81v-63h-230v63h63z" />
    <glyph glyph-name="Y" unicode="Y" horiz-adv-x="722" 
d="M8 637v63h242v-63h-73q15 -15 24 -28l173 -240l169 236q6 9 27 32h-86v63h230v-63h-64l-239 -335l-3 -239h79v-63h-238v63h73l3 238l-245 336h-72z" />
    <glyph glyph-name="Z" unicode="Z" horiz-adv-x="648" 
d="M52 0v59l412 544q4 6 30 34h-341l-6 -105h-74l6 168h515v-63l-406 -538q-9 -12 -31 -36h359l6 106h74l-6 -169h-538z" />
    <glyph glyph-name="bracketleft" unicode="[" 
d="M102 -251l4 1020h176v-63h-94l-4 -894h94v-63h-176z" />
    <glyph glyph-name="backslash" unicode="\" horiz-adv-x="370" 
d="M71 777l327 -830l-63 -24l-327 830z" />
    <glyph glyph-name="bracketright" unicode="]" 
d="M212 769l-4 -1020h-176v63h94l4 894h-94v63h176z" />
    <glyph glyph-name="asciicircum" unicode="^" horiz-adv-x="600" 
d="M443 335l-143 287l-143 -287h-68l181 365h60l181 -365h-68z" />
    <glyph glyph-name="underscore" unicode="_" horiz-adv-x="500" 
d="M500 -125h-500v50h500v-50z" />
    <glyph glyph-name="grave" unicode="`" 
d="M56 802l184 -158l-49 -42l-187 156z" />
    <glyph glyph-name="a" unicode="a" horiz-adv-x="574" 
d="M242 51q24 0 47 8t47.5 26.5t39 57.5t14.5 94h-46.5t-43 -1.5t-42.5 -4t-36 -6.5t-32.5 -11.5t-23 -17.5t-16.5 -24t-5 -32q0 -42 27.5 -65.5t69.5 -23.5zM157 444v-80h-74v124q99 40 181 40q103 0 153.5 -43t50.5 -143q0 -16 -3 -121t-3 -158h74v-63h-148v21q0 41 10 91
h-2q-24 -63 -65 -93.5t-108 -30.5q-26 0 -50.5 6t-51 20.5t-42.5 46t-16 75.5q0 35 11.5 61.5t35.5 43.5t51 28t67.5 16t76.5 7t85 2v37q0 72 -28 103t-90 31q-66 0 -115 -21z" />
    <glyph glyph-name="b" unicode="b" horiz-adv-x="593" 
d="M169 276l-4 -196q69 -24 110 -24q95 0 142.5 64t47.5 157q0 91 -40 137t-104 46q-63 0 -106.5 -43.5t-45.5 -140.5zM83 29l4 677h-87v63h170l-2 -271q0 -41 -10 -96h2q16 55 66 90.5t117 35.5q102 0 155 -70t53 -179q0 -50 -14 -98t-44 -93t-86.5 -72.5t-133.5 -27.5
q-21 0 -39.5 1.5t-31 3.5t-30 6.5t-26 7.5l-30.5 10.5z" />
    <glyph glyph-name="c" unicode="c" horiz-adv-x="519" 
d="M469 85l-4 -72q-83 -25 -149 -25q-73 0 -127.5 22.5t-84 62t-43.5 85.5t-14 100q0 70 23.5 124.5t62.5 85t82.5 45.5t89.5 15q94 0 167 -26v-135h-74v81q-33 12 -86 12q-43 0 -75.5 -13t-52 -33.5t-31.5 -48.5t-16 -53.5t-4 -53.5q0 -16 1.5 -32.5t12.5 -50t30 -57.5
t58.5 -43t93.5 -19q47 0 140 29z" />
    <glyph glyph-name="d" unicode="d" horiz-adv-x="630" 
d="M435 273v164q-3 1 -14.5 6t-20 8t-26.5 6t-40 3q-92 0 -143 -58t-51 -166q0 -77 37 -128.5t108 -51.5q150 0 150 217zM519 769l-4 -706h77v-63h-159q0 54 10 104l-2 2q-16 -47 -59.5 -82.5t-113.5 -35.5q-93 0 -153.5 64.5t-60.5 184.5q0 131 71.5 211t202.5 80
q73 0 107 -23l2 201h-103v63h185z" />
    <glyph glyph-name="e" unicode="e" horiz-adv-x="556" 
d="M133 314h290q0 63 -37.5 107t-99.5 44q-65 0 -107 -43t-46 -108zM509 251h-376q6 -195 196 -195q79 0 155 39l-3 -71q-29 -14 -80 -25t-90 -11q-125 0 -194.5 68.5t-69.5 200.5q0 119 62.5 195t176.5 76q58 0 101 -20.5t66 -49.5t36 -70.5t16.5 -72t3.5 -64.5z" />
    <glyph glyph-name="f" unicode="f" horiz-adv-x="370" 
d="M436 765l-3 -68q-27 12 -84 12q-44 0 -72 -10.5t-41.5 -33.5t-17.5 -46.5t-4 -60.5v-42h133l-1 -63h-132l-2 -390h84v-63h-236v63h70l2 390h-85v63h85v50q0 211 206 211q67 0 98 -12z" />
    <glyph glyph-name="g" unicode="g" horiz-adv-x="556" 
d="M564 516v-63h-46q-6 0 -19.5 1t-29.5 2.5t-20 1.5q49 -48 49 -124q0 -84 -62 -134t-156 -50q-26 0 -59.5 -12.5t-33.5 -36.5q0 -19 18.5 -27t70.5 -16l138 -23q67 -11 103 -39t36 -86q0 -84 -74 -128.5t-179 -44.5q-66 0 -119.5 13.5t-90 46.5t-36.5 81q0 98 130 127v2
q-79 17 -79 80q0 25 16.5 41.5t32.5 22.5t45 14v2q-18 4 -36 13t-41.5 27.5t-38 53t-14.5 80.5q0 81 60 134t154 53q43 0 89 -12h192zM383 -32l-138 20q-21 0 -67 -27t-46 -70q0 -37 34.5 -59t68.5 -27t69 -5q27 0 53.5 4.5t53.5 15t43.5 32t16.5 50.5q0 31 -23.5 45.5
t-64.5 20.5zM287 465q-61 0 -100.5 -34.5t-39.5 -90.5q0 -53 39 -90t94 -37q65 0 104.5 37.5t39.5 92.5q0 45 -34.5 83.5t-102.5 38.5z" />
    <glyph glyph-name="h" unicode="h" horiz-adv-x="667" 
d="M120 63l4 643h-100v63h182l-1 -271q0 -41 -10 -96h2q16 57 69 91.5t114 34.5q177 0 177 -194q0 -45 -2 -138.5t-2 -132.5h76v-63h-224v63h66q0 40 2 122.5t2 124.5q0 21 -1 35.5t-7.5 38.5t-17.5 38.5t-34.5 26t-56.5 11.5q-64 0 -108.5 -44t-44.5 -140l-3 -213h76v-63
h-232v63h74z" />
    <glyph glyph-name="i" unicode="i" 
d="M120 63l4 390h-94v63h176l-4 -453h82v-63h-246v63h82zM93 715q0 25 18.5 43.5t43.5 18.5t43.5 -18.5t18.5 -43.5t-18.5 -43.5t-43.5 -18.5t-43.5 18.5t-18.5 43.5z" />
    <glyph glyph-name="j" unicode="j" 
d="M219 516l-4 -387q-1 -122 -20.5 -187.5t-57.5 -109.5q-60 -71 -180 -95l-12 66q86 23 135 82q27 32 39 88.5t14 154.5l4 325h-95v63h177zM106 715q0 25 18 43.5t44 18.5t44 -18.5t18 -43.5t-18 -43.5t-44 -18.5t-44 18.5t-18 43.5z" />
    <glyph glyph-name="k" unicode="k" horiz-adv-x="593" 
d="M120 63l4 643h-100v63h182l-2 -480l197 162v2h-72v63h224v-63h-53l-214 -174l233 -216h56v-63h-224v63h62v2l-209 199l-2 -201h68v-63h-224v63h74z" />
    <glyph glyph-name="l" unicode="l" 
d="M120 63l4 643h-100v63h182l-4 -706h82v-63h-238v63h74z" />
    <glyph glyph-name="m" unicode="m" horiz-adv-x="1000" 
d="M54 0v63h66l4 390h-83v63h165q0 -41 -3 -62l-8 -52h2q16 57 69 91.5t114 34.5q67 0 106.5 -33.5t49.5 -87.5h2q0 1 3.5 9l5.5 12.5t8 14.5t11 16.5t13.5 16t17.5 16t21.5 14t26 12t31.5 7.5t37 3q177 0 177 -194q0 -45 -2 -138.5t-2 -132.5h76v-63h-224v63h66q0 29 2 116
t2 134q0 67 -23.5 107t-88.5 40q-59 0 -103 -44t-45 -140l-2 -213h74v-63h-225v63h66q0 29 2 116t2 134q0 67 -23.5 107t-88.5 40q-59 0 -103 -44t-45 -140l-2 -213h75v-63h-224z" />
    <glyph glyph-name="n" unicode="n" horiz-adv-x="667" 
d="M405 0v63h66q0 40 2 122.5t2 124.5q0 21 -1 35.5t-7.5 38.5t-17.5 38.5t-34.5 26t-56.5 11.5q-64 0 -108.5 -44t-44.5 -140l-2 -213h75v-63h-224v63h66l4 390h-83v63h165q0 -41 -3 -62l-8 -52h2q16 57 69 91.5t114 34.5q177 0 177 -194q0 -45 -2 -138.5t-2 -132.5h76v-63
h-224z" />
    <glyph glyph-name="o" unicode="o" horiz-adv-x="594" 
d="M47 244q0 126 67 205t183 79t183 -71.5t67 -184.5q0 -126 -67 -205t-183 -79t-183 71.5t-67 184.5zM133 258q0 -88 42.5 -145t121.5 -57t121.5 57t42.5 145t-42.5 145t-121.5 57t-121.5 -57t-42.5 -145z" />
    <glyph glyph-name="p" unicode="p" horiz-adv-x="630" 
d="M115 -188l4 641h-89v63h170v-18q0 -41 -10 -96h2q16 55 66 90.5t117 35.5q102 0 155 -70t53 -179q0 -50 -14 -98t-44 -93t-86.5 -72.5t-133.5 -27.5q-54 0 -106 18l-2 -194h86v-63h-242v63h74zM201 276l-4 -196q69 -24 110 -24q95 0 142.5 64t47.5 157q0 91 -40 137
t-104 46q-63 0 -106.5 -43.5t-45.5 -140.5z" />
    <glyph glyph-name="q" unicode="q" horiz-adv-x="630" 
d="M435 285v152q-3 1 -14.5 6t-20 8t-26.5 6t-40 3q-92 0 -143 -58t-51 -166q0 -77 37 -128.5t108 -51.5q150 0 150 229zM356 -251v63h75l2 188q0 54 10 104l-2 2q-15 -55 -64.5 -86.5t-108.5 -31.5q-38 0 -73 12t-68 38.5t-53 78t-20 120.5q0 134 72.5 212.5t204.5 78.5
q67 0 155 -28h31l-4 -688h79v-63h-236z" />
    <glyph glyph-name="r" unicode="r" horiz-adv-x="426" 
d="M120 63l4 390h-88v63h170v-28q0 -41 -11 -133h3q10 38 18.5 60t27.5 51.5t51.5 44t77.5 14.5q8 0 28.5 -2.5t23.5 -5.5l-8 -74q-22 8 -56 8q-74 0 -113.5 -59t-41.5 -136l-4 -193h87v-63h-242v63h73z" />
    <glyph glyph-name="s" unicode="s" horiz-adv-x="500" 
d="M419 497l4 -124h-74l-4 73q-23 19 -91 19q-48 0 -83.5 -18.5t-35.5 -60.5q0 -39 31 -57t95 -29q99 -17 142.5 -50.5t43.5 -96.5q0 -74 -52.5 -119.5t-158.5 -45.5q-44 0 -99 9.5t-78 21.5l-4 132h74l4 -77q48 -23 117 -23q47 0 83 21.5t36 64.5q0 35 -29 52.5t-80 28.5
q-116 25 -161.5 54.5t-45.5 100.5q0 68 49.5 111.5t153.5 43.5q33 0 83.5 -9.5t79.5 -21.5z" />
    <glyph glyph-name="t" unicode="t" horiz-adv-x="389" 
d="M38 453v63h83l4 126l82 5l-4 -131h162v-63h-163q-4 -172 -4 -259q0 -29 0.5 -43.5t4.5 -36t12 -32t23.5 -18.5t38.5 -8q51 0 102 21l-3 -65q-48 -24 -116 -24q-41 0 -70 12t-43 27.5t-21.5 42.5t-8.5 43t-1 44t0.5 83t2 122.5t1.5 90.5h-82z" />
    <glyph glyph-name="u" unicode="u" horiz-adv-x="648" 
d="M31 453v63h165q0 -44 -2 -143.5t-2 -161.5q0 -32 4 -56.5t15 -48.5t35 -37t60 -13q43 0 73.5 18.5t45 42.5t23 62t9.5 60t1 54v160h-81v63h165l-4 -453h72v-63h-153q0 41 3 62l8 52h-2q-18 -51 -65 -88.5t-109 -37.5q-103 0 -142.5 56t-39.5 155q0 55 2 144t2 110h-83z
" />
    <glyph glyph-name="v" unicode="v" horiz-adv-x="574" 
d="M10 453v63h212v-63h-62l119 -331q5 -14 11 -44h2q6 30 11 44l122 331h-67v63h206v-63h-57l-178 -453h-82l-179 453h-58z" />
    <glyph glyph-name="w" unicode="w" horiz-adv-x="870" 
d="M17 453v63h212v-63h-62l111 -321q10 -30 14 -54h2q4 23 16 54l95 244l-29 77h-57v63h212v-63h-69l109 -321q10 -30 14 -54h2q4 24 14 54l115 321h-69v63h206v-63h-59l-173 -453h-86l-81 237q-10 30 -14 54h-2q-4 -22 -16 -54l-94 -237h-82l-171 453h-58z" />
    <glyph glyph-name="x" unicode="x" horiz-adv-x="593" 
d="M31 453v63h224v-63h-66v-2q6 -3 16 -15l100 -126l101 126q10 12 16 15v2h-72v63h206v-63h-59l-154 -184l164 -206h62v-63h-224v63h69v2q-6 3 -16 15l-110 138l-109 -138q-10 -12 -16 -15v-2h67v-63h-206v63h59l167 200l-154 190h-65z" />
    <glyph glyph-name="y" unicode="y" horiz-adv-x="574" 
d="M10 453v63h218v-63h-65l123 -321q10 -30 14 -54h2q4 24 14 54l115 321h-73v63h206v-63h-57l-158 -435q-57 -157 -112 -219t-150 -62q-34 0 -61 9v68q27 -9 58 -9q105 0 159 130l17 42l-189 476h-61z" />
    <glyph glyph-name="z" unicode="z" horiz-adv-x="537" 
d="M486 150l-8 -150h-427v60l287 344q5 6 48 49h-244l-4 -83h-74l4 146h416v-57l-297 -357l-39 -39h256l8 87h74z" />
    <glyph glyph-name="braceleft" unicode="{" 
d="M279 769v-63q-56 0 -73 -21.5t-17 -94.5q0 -24 -1 -95.5t-1 -95.5q0 -61 -14.5 -93t-55.5 -46v-2q41 -14 55.5 -46t14.5 -93q0 -24 -1 -95.5t-1 -95.5q0 -73 18.5 -94.5t75.5 -21.5v-63h-56q-56 0 -88 31.5t-32 119.5q0 31 1 106.5t1 106.5q0 58 -10 85t-40 27h-20v68h20
q30 0 40 27t10 85q0 31 1 106.5t1 106.5q0 89 30.5 120t85.5 31h56z" />
    <glyph glyph-name="bar" unicode="|" horiz-adv-x="222" 
d="M77 -250v1000h68v-1000h-68z" />
    <glyph glyph-name="braceright" unicode="}" 
d="M35 -251v63q56 0 73 21.5t17 94.5q0 24 1 95.5t1 95.5q0 61 14.5 93t55.5 46v2q-41 14 -55.5 46t-14.5 93q0 24 1 95.5t1 95.5q0 73 -18.5 94.5t-75.5 21.5v63h56q56 0 88 -31.5t32 -119.5q0 -31 -1 -106.5t-1 -106.5q0 -58 10 -85t40 -27h20v-68h-20q-30 0 -40 -27
t-10 -85q0 -31 -1 -106.5t-1 -106.5q0 -89 -30.5 -120t-85.5 -31h-56z" />
    <glyph glyph-name="asciitilde" unicode="~" horiz-adv-x="600" 
d="M105 183l-36 50q46 88 124 88q41 0 115 -34t100 -34t45.5 18t41.5 52l36 -50q-20 -28 -33 -43t-38.5 -30t-54.5 -15q-35 0 -113 34q-76 34 -102 34q-53 0 -85 -70z" />
    <glyph glyph-name="uni00A0" unicode="&#xa0;" horiz-adv-x="278" 
 />
    <glyph glyph-name="exclamdown" unicode="&#xa1;" 
d="M189 290l10 -533h-92l10 533h72zM219 476q0 -26 -18.5 -44t-43.5 -18t-43.5 18t-18.5 44t18.5 44t43.5 18t43.5 -18t18.5 -44z" />
    <glyph glyph-name="cent" unicode="&#xa2;" horiz-adv-x="556" 
d="M279 59l2 398q-41 -7 -69.5 -28.5t-42.5 -51t-20 -58.5t-6 -61q0 -74 34.5 -128.5t101.5 -70.5zM344 460l-2 -404q58 0 149 29l-4 -74q-100 -22 -145 -23l-2 -121h-63l2 124q-61 7 -105.5 32t-69 63t-36 80.5t-11.5 91.5q0 123 65.5 189.5t158.5 77.5l2 108h63l-2 -105
q33 0 82 -7.5t73 -18.5v-135h-68v81q-22 9 -87 12z" />
    <glyph glyph-name="sterling" unicode="&#xa3;" horiz-adv-x="556" 
d="M531 685v-155h-74v101q-49 13 -93 13q-32 0 -57 -6t-50 -23t-39 -53.5t-14 -91.5q0 -45 4 -73h148v-63h-146q4 -35 4 -113q0 -110 -31 -158h269l6 105h74l-6 -168h-502v63h77q17 28 24 62.5t7 103.5q0 41 -4 105h-91v63h89q-4 46 -4 72q0 126 62.5 184.5t188.5 58.5
q88 0 158 -27z" />
    <glyph glyph-name="currency" unicode="&#xa4;" horiz-adv-x="556" 
d="M27 143l56 56q-53 64 -53 151t53 151l-56 56l45 43l55 -55q64 53 151 53q86 0 151 -53l55 55l45 -43l-55 -56q52 -65 52 -151t-52 -151l55 -56l-45 -43l-55 55q-65 -53 -151 -53q-87 0 -151 53l-55 -55zM278 535q-75 0 -127.5 -53.5t-52.5 -131.5t52.5 -131.5
t127.5 -53.5t127.5 53.5t52.5 131.5t-52.5 131.5t-127.5 53.5z" />
    <glyph glyph-name="yen" unicode="&#xa5;" horiz-adv-x="556" 
d="M6 637v63h186v-63h-53l149 -268l145 268h-59v63h176v-63h-49l-146 -274h126v-57h-159l-2 -75h161v-57h-161l-2 -111h57v-63h-183v63h52l2 111h-161v57h161l2 75h-163v57h129l-153 274h-55z" />
    <glyph glyph-name="brokenbar" unicode="&#xa6;" horiz-adv-x="222" 
d="M77 -175v350h68v-350h-68zM77 325v350h68v-350h-68z" />
    <glyph glyph-name="section" unicode="&#xa7;" horiz-adv-x="556" 
d="M476 556h-74v71q-45 17 -105 17q-69 0 -99 -27.5t-30 -61.5q0 -21 8 -37.5t30 -32t40 -25t58 -28.5l51 -24q37 -20 54 -30.5t38.5 -29.5t29.5 -42.5t8 -55.5q0 -29 -7.5 -51.5t-24.5 -40.5t-28 -27t-32 -23q48 -34 68.5 -63t20.5 -76q0 -90 -65.5 -133t-159.5 -43
q-27 0 -51.5 2.5t-47 8l-34 8.5t-32 10.5t-21.5 7.5v140h78v-83l21 -8q20 -8 43 -13t50 -5q55 0 96 25.5t41 76.5q0 23 -9 40t-33.5 33.5t-46 27t-69.5 31.5q-45 21 -67 33t-49 32.5t-38 45.5t-11 58q0 47 28.5 90t72.5 59q-40 17 -66 52.5t-26 78.5q0 87 59.5 127.5
t155.5 40.5q90 0 175 -32v-124zM257 175l83 -38q18 12 29 20.5t24.5 31t13.5 48.5q0 25 -13 45t-28 30t-43 24l-90 45q-74 -39 -74 -97q0 -41 22 -61.5t76 -47.5z" />
    <glyph glyph-name="dieresis" unicode="&#xa8;" 
d="M-11 698q0 25 17 42t42 17t42 -17t17 -42t-17 -42t-42 -17t-42 17t-17 42zM207 698q0 25 17 42t42 17t42 -17t17 -42t-17 -42t-42 -17t-42 17t-17 42z" />
    <glyph glyph-name="copyright" unicode="&#xa9;" horiz-adv-x="800" 
d="M508 287h80q-12 -72 -61.5 -113.5t-122.5 -41.5q-89 0 -143 59.5t-54 159.5t55.5 159t148.5 59q69 0 116.5 -39.5t57.5 -110.5h-80q-6 38 -30.5 60t-65.5 22q-59 0 -93.5 -41.5t-34.5 -108.5q0 -69 35 -110t94 -41q39 0 66.5 22.5t31.5 64.5zM38 350q0 150 106 256
t256 106t256 -106t106 -256t-106 -256t-256 -106t-256 106t-106 256zM106 350q0 -125 86 -212t208 -87t208 87t86 212t-86 212t-208 87t-208 -87t-86 -212z" />
    <glyph glyph-name="ordfeminine" unicode="&#xaa;" horiz-adv-x="374" 
d="M245 535q-37 0 -56 -1t-45.5 -6t-38.5 -17t-12 -32q0 -19 17.5 -31.5t40.5 -12.5q21 0 40 7t36.5 31t17.5 62zM45 606v82q69 24 121 24q69 0 102.5 -26t33.5 -86q0 -11 -2 -71.5t-2 -85.5h46v-45h-101v10q0 20 7 48h-2q-11 -28 -38.5 -47t-70.5 -19t-76 19t-33 68
q0 26 12 44t30 28t48.5 15.5t57.5 7t67 1.5v26q0 68 -74 68q-44 0 -75 -13v-48h-51z" />
    <glyph glyph-name="guillemotleft" unicode="&#xab;" horiz-adv-x="500" 
d="M255 302l131 147l57 -45l-114 -130l114 -130l-57 -45l-131 147v56zM57 302l131 147l57 -45l-114 -130l114 -130l-57 -45l-131 147v56z" />
    <glyph glyph-name="logicalnot" unicode="&#xac;" horiz-adv-x="600" 
d="M485 108v211h-438v68h506v-279h-68z" />
    <glyph glyph-name="uni00AD" unicode="&#xad;" horiz-adv-x="407" 
d="M74 237v74h259v-74h-259z" />
    <glyph glyph-name="registered" unicode="&#xae;" horiz-adv-x="800" 
d="M246 143v414h159q78 0 116.5 -28.5t38.5 -90.5q0 -98 -106 -118l111 -177h-78l-109 174h-64v-174h-68zM314 494v-114h91q87 0 87 61q0 53 -87 53h-91zM38 350q0 150 106 256t256 106t256 -106t106 -256t-106 -256t-256 -106t-256 106t-106 256zM106 350q0 -125 86 -212
t208 -87t208 87t86 212t-86 212t-208 87t-208 -87t-86 -212z" />
    <glyph glyph-name="macron" unicode="&#xaf;" 
d="M16 672v63h282v-63h-282z" />
    <glyph glyph-name="degree" unicode="&#xb0;" horiz-adv-x="400" 
d="M109 570q0 -38 26.5 -64.5t64.5 -26.5t64.5 26.5t26.5 64.5t-26.5 64.5t-64.5 26.5t-64.5 -26.5t-26.5 -64.5zM58 570q0 58 42 100t100 42t100 -42t42 -100t-42 -100t-100 -42t-100 42t-42 100z" />
    <glyph glyph-name="plusminus" unicode="&#xb1;" horiz-adv-x="600" 
d="M266 104v167h-219v68h219v167h68v-167h219v-68h-219v-167h-68zM47 0v68h506v-68h-506z" />
    <glyph glyph-name="two.superior" unicode="&#xb2;" horiz-adv-x="361" 
d="M31 284v39l56 47q169 142 169 222q0 28 -21 45.5t-57 17.5q-75 0 -85 -74h-63q0 57 43.5 94t109.5 37q68 0 104.5 -32t36.5 -82q0 -58 -36.5 -106.5t-110.5 -115.5l-44 -39v-2h198v-51h-300z" />
    <glyph glyph-name="three.superior" unicode="&#xb3;" horiz-adv-x="361" 
d="M121 474v51h17q51 0 81 24t30 52q0 25 -21 42.5t-50 17.5q-33 0 -58 -18.5t-25 -48.5h-63q0 49 38 83.5t116 34.5q65 0 98 -28.5t33 -72.5q0 -50 -31.5 -74.5t-67.5 -28.5v-2q116 -10 116 -103q0 -51 -42.5 -89t-132.5 -38q-91 0 -122 22v60q44 -29 115 -31q54 1 84 23.5
t30 56.5q0 67 -127 67h-18z" />
    <glyph glyph-name="acute" unicode="&#xb4;" 
d="M74 644l184 158l52 -44l-187 -156z" />
    <glyph glyph-name="mu" unicode="&#xb5;" horiz-adv-x="648" 
d="M106 -263l8 716h-83v63h165q0 -44 -2 -143.5t-2 -161.5q0 -32 4 -56.5t15 -48.5t35 -37t60 -13q43 0 73.5 18.5t45 42.5t23 62t9.5 60t1 54v160h-81v63h165l-4 -453h72v-63h-153q0 41 3 62l8 52h-2q-18 -51 -65 -88.5t-109 -37.5q-64 0 -98 34l-2 -285h-86z" />
    <glyph glyph-name="paragraph" unicode="&#xb6;" horiz-adv-x="600" 
d="M245 -195v525q-78 0 -133 52t-55 130q0 96 61 142t168 46h228v-895h-82v827h-105v-827h-82z" />
    <glyph glyph-name="periodcentered" unicode="&#xb7;" horiz-adv-x="278" 
d="M77 287q0 25 18.5 43.5t43.5 18.5t43.5 -18.5t18.5 -43.5t-18.5 -43.5t-43.5 -18.5t-43.5 18.5t-18.5 43.5z" />
    <glyph glyph-name="cedilla" unicode="&#xb8;" 
d="M128 -109v109h57v-68q42 0 66 -17q27 -21 27 -60q0 -50 -39 -69t-89 -19q-56 0 -90 15l6 52q37 -16 76 -16q62 0 62 37q0 41 -49 41q-5 0 -27 -5z" />
    <glyph glyph-name="one.superior" unicode="&#xb9;" horiz-adv-x="361" 
d="M86 284v51h86l4 304l-114 -66l-24 45l151 86h55l-4 -369h83v-51h-237z" />
    <glyph glyph-name="ordmasculine" unicode="&#xba;" horiz-adv-x="362" 
d="M181 712q77 0 122 -46t45 -115t-45 -115t-122 -46t-122 46t-45 115t45 115t122 46zM181 435q49 0 76.5 35.5t27.5 80.5t-27.5 80.5t-76.5 35.5t-76.5 -35.5t-27.5 -80.5t27.5 -80.5t76.5 -35.5z" />
    <glyph glyph-name="guillemotright" unicode="&#xbb;" horiz-adv-x="500" 
d="M245 246l-131 -147l-57 45l114 130l-114 130l57 45l131 -147v-56zM443 246l-131 -147l-57 45l114 130l-114 130l57 45l131 -147v-56z" />
    <glyph glyph-name="onequarter" unicode="&#xbc;" horiz-adv-x="834" 
d="M661 357l-138 -182h138l2 182h-2zM445 163l194 257h92l-2 -245h80v-51h-80l-2 -73h48v-51h-162v51h46l2 73h-216v39zM179 -22l450 778l51 -34l-450 -778zM80 284v51h86l4 304l-114 -66l-24 45l151 86h55l-4 -369h83v-51h-237z" />
    <glyph glyph-name="onehalf" unicode="&#xbd;" horiz-adv-x="834" 
d="M179 -22l450 778l51 -34l-450 -778zM502 0v39l56 47q169 142 169 222q0 28 -21 45.5t-57 17.5q-75 0 -85 -74h-63q0 57 43.5 94t109.5 37q68 0 104.5 -32t36.5 -82q0 -58 -36.5 -106.5t-110.5 -115.5l-44 -39v-2h198v-51h-300zM80 284v51h86l4 304l-114 -66l-24 45
l151 86h55l-4 -369h83v-51h-237z" />
    <glyph glyph-name="threequarters" unicode="&#xbe;" horiz-adv-x="834" 
d="M661 357l-138 -182h138l2 182h-2zM445 163l194 257h92l-2 -245h80v-51h-80l-2 -73h48v-51h-162v51h46l2 73h-216v39zM179 -22l450 778l51 -34l-450 -778zM133 474v51h17q51 0 81 24t30 52q0 25 -21 42.5t-50 17.5q-33 0 -58 -18.5t-25 -48.5h-63q0 49 38 83.5t116 34.5
q65 0 98 -28.5t33 -72.5q0 -50 -31.5 -74.5t-67.5 -28.5v-2q116 -10 116 -103q0 -51 -42.5 -89t-132.5 -38q-91 0 -122 22v60q44 -29 115 -31q54 1 84 23.5t30 56.5q0 67 -127 67h-18z" />
    <glyph glyph-name="questiondown" unicode="&#xbf;" horiz-adv-x="500" 
d="M399 -164l6 -67q-59 -20 -121 -20q-61 0 -105 18t-65.5 47t-30.5 57t-9 56q0 99 110 178l36 26l45.5 33t23.5 25t10 31q0 22 -16 40l-12 14l67 36q43 -43 43 -92q0 -40 -17.5 -62t-65.5 -56l-33 -22q-105 -64 -105 -143q0 -49 34.5 -83.5t108.5 -34.5q42 0 96 19z
M377 476q0 -26 -18.5 -44t-43.5 -18t-43.5 18t-18.5 44t18.5 44t43.5 18t43.5 -18t18.5 -44z" />
    <glyph glyph-name="Agrave" unicode="&#xc0;" horiz-adv-x="741" 
d="M265 339h206l-84 233q-9 25 -14 48h-2q-5 -23 -14 -48zM11 0v63h64l260 637h92l236 -637h67v-63h-236v63h74l-75 213h-253l-83 -213h84v-63h-230zM270 926l184 -158l-49 -42l-187 156z" />
    <glyph glyph-name="Aacute" unicode="&#xc1;" horiz-adv-x="741" 
d="M265 339h206l-84 233q-9 25 -14 48h-2q-5 -23 -14 -48zM11 0v63h64l260 637h92l236 -637h67v-63h-236v63h74l-75 213h-253l-83 -213h84v-63h-230zM288 768l184 158l52 -44l-187 -156z" />
    <glyph glyph-name="Acircumflex" unicode="&#xc2;" horiz-adv-x="741" 
d="M265 339h206l-84 233q-9 25 -14 48h-2q-5 -23 -14 -48zM11 0v63h64l260 637h92l236 -637h67v-63h-236v63h74l-75 213h-253l-83 -213h84v-63h-230zM248 736l-49 42l144 138h56l144 -138l-49 -42l-123 123z" />
    <glyph glyph-name="Atilde" unicode="&#xc3;" horiz-adv-x="741" 
d="M265 339h206l-84 233q-9 25 -14 48h-2q-5 -23 -14 -48zM11 0v63h64l260 637h92l236 -637h67v-63h-236v63h74l-75 213h-253l-83 -213h84v-63h-230zM248 771l-56 30q22 42 46 61t65 19q37 0 83 -26q41 -23 55 -23q28 0 61 44l48 -34q-37 -46 -54 -58q-23 -15 -53 -15
q-40 0 -89 30q-32 19 -47 19q-35 0 -59 -47z" />
    <glyph glyph-name="Adieresis" unicode="&#xc4;" horiz-adv-x="741" 
d="M265 339h206l-84 233q-9 25 -14 48h-2q-5 -23 -14 -48zM11 0v63h64l260 637h92l236 -637h67v-63h-236v63h74l-75 213h-253l-83 -213h84v-63h-230zM211 822q0 25 17 42t42 17t42 -17t17 -42t-17 -42t-42 -17t-42 17t-17 42zM429 822q0 25 17 42t42 17t42 -17t17 -42
t-17 -42t-42 -17t-42 17t-17 42z" />
    <glyph glyph-name="Aring" unicode="&#xc5;" horiz-adv-x="741" 
d="M265 339h206l-84 233q-9 25 -14 48h-2q-5 -23 -14 -48zM11 0v63h64l260 637h92l236 -637h67v-63h-236v63h74l-75 213h-253l-83 -213h84v-63h-230zM281 819q0 41 29.5 70.5t70.5 29.5t70.5 -29.5t29.5 -70.5t-29.5 -70.5t-70.5 -29.5t-70.5 29.5t-29.5 70.5zM338 819
q0 -55 43 -55t43 55t-43 55q-21 0 -32 -15.5t-11 -39.5z" />
    <glyph glyph-name="AE" unicode="&#xc6;" horiz-adv-x="981" 
d="M60 63l361 637h480v-162h-74v99h-218l-2 -264h215v-63h-215l-2 -247h243l6 109h74l-6 -172h-479v63h76l2 247h-240l-135 -247h81v-63h-230v63h63zM459 637l-145 -264h207l2 264h-64z" />
    <glyph glyph-name="Ccedilla" unicode="&#xc7;" horiz-adv-x="685" 
d="M557 517v110q-58 17 -131 17q-130 0 -207 -75t-77 -214q0 -144 73.5 -221.5t214.5 -77.5q53 0 117 15l4 116h78l-4 -170q-64 -27 -183 -29v-56q42 0 66 -17q27 -21 27 -60q0 -50 -39 -69t-89 -19q-56 0 -90 15l6 52q37 -16 76 -16q62 0 62 37q0 41 -49 41q-4 0 -27 -5v99
q-160 10 -247.5 99.5t-87.5 255.5q0 75 23 140t68.5 116.5t120 81t169.5 29.5q111 0 204 -35v-160h-78z" />
    <glyph glyph-name="Egrave" unicode="&#xc8;" horiz-adv-x="574" 
d="M119 63l4 574h-80v63h473v-162h-74v99h-233l-2 -246h220v-63h-220l-2 -265h243l6 109h74l-6 -172h-479v63h76zM186 926l184 -158l-49 -42l-187 156z" />
    <glyph glyph-name="Eacute" unicode="&#xc9;" horiz-adv-x="574" 
d="M119 63l4 574h-80v63h473v-162h-74v99h-233l-2 -246h220v-63h-220l-2 -265h243l6 109h74l-6 -172h-479v63h76zM204 768l184 158l52 -44l-187 -156z" />
    <glyph glyph-name="Ecircumflex" unicode="&#xca;" horiz-adv-x="574" 
d="M119 63l4 574h-80v63h473v-162h-74v99h-233l-2 -246h220v-63h-220l-2 -265h243l6 109h74l-6 -172h-479v63h76zM164 736l-49 42l144 138h56l144 -138l-49 -42l-123 123z" />
    <glyph glyph-name="Edieresis" unicode="&#xcb;" horiz-adv-x="574" 
d="M119 63l4 574h-80v63h473v-162h-74v99h-233l-2 -246h220v-63h-220l-2 -265h243l6 109h74l-6 -172h-479v63h76zM119 822q0 25 17 42t42 17t42 -17t17 -42t-17 -42t-42 -17t-42 17t-17 42zM337 822q0 25 17 42t42 17t42 -17t17 -42t-17 -42t-42 -17t-42 17t-17 42z" />
    <glyph glyph-name="Igrave" unicode="&#xcc;" horiz-adv-x="334" 
d="M122 63l4 574h-80v63h242v-63h-76l-4 -574h80v-63h-242v63h76zM66 926l184 -158l-49 -42l-187 156z" />
    <glyph glyph-name="Iacute" unicode="&#xcd;" horiz-adv-x="334" 
d="M122 63l4 574h-80v63h242v-63h-76l-4 -574h80v-63h-242v63h76zM84 768l184 158l52 -44l-187 -156z" />
    <glyph glyph-name="Icircumflex" unicode="&#xce;" horiz-adv-x="334" 
d="M122 63l4 574h-80v63h242v-63h-76l-4 -574h80v-63h-242v63h76zM44 736l-49 42l144 138h56l144 -138l-49 -42l-123 123z" />
    <glyph glyph-name="Idieresis" unicode="&#xcf;" horiz-adv-x="334" 
d="M122 63l4 574h-80v63h242v-63h-76l-4 -574h80v-63h-242v63h76zM-1 822q0 25 17 42t42 17t42 -17t17 -42t-17 -42t-42 -17t-42 17t-17 42zM217 822q0 25 17 42t42 17t42 -17t17 -42t-17 -42t-42 -17t-42 17t-17 42z" />
    <glyph glyph-name="Eth" unicode="&#xd0;" horiz-adv-x="759" 
d="M424 404v-63h-217l-2 -278h108q152 0 226 74q78 78 78 223q0 143 -81 214q-41 36 -91.5 49.5t-126.5 13.5h-109l-2 -233h217zM43 0v63h76l2 278h-78v63h78l2 233h-80v63h315q163 0 257 -85.5t94 -254.5q0 -180 -101.5 -270t-283.5 -90h-281z" />
    <glyph glyph-name="Ntilde" unicode="&#xd1;" horiz-adv-x="796" 
d="M119 63l4 574h-93v63h167l381 -512q11 -15 33 -52h2l4 501h-87v63h236v-63h-75l-4 -637h-71l-396 526q-14 20 -27 44h-2l-4 -507h88v-63h-232v63h76zM287 771l-56 30q22 42 46 61t65 19q38 0 83 -26q41 -23 55 -23q28 0 61 44l48 -34q-37 -46 -54 -58q-23 -15 -53 -15
q-40 0 -89 30q-32 19 -47 19q-36 0 -59 -47z" />
    <glyph glyph-name="Ograve" unicode="&#xd2;" horiz-adv-x="760" 
d="M50 338q0 166 87 270t243 104q158 0 244 -99.5t86 -250.5q0 -166 -87 -270t-243 -104q-158 0 -244 99.5t-86 250.5zM142 350q0 -80 23.5 -144.5t78.5 -107t136 -42.5t136 42.5t78.5 107t23.5 144.5t-23.5 144.5t-78.5 107t-136 42.5t-136 -42.5t-78.5 -107t-23.5 -144.5z
M279 926l184 -158l-49 -42l-187 156z" />
    <glyph glyph-name="Oacute" unicode="&#xd3;" horiz-adv-x="760" 
d="M50 338q0 166 87 270t243 104q158 0 244 -99.5t86 -250.5q0 -166 -87 -270t-243 -104q-158 0 -244 99.5t-86 250.5zM142 350q0 -80 23.5 -144.5t78.5 -107t136 -42.5t136 42.5t78.5 107t23.5 144.5t-23.5 144.5t-78.5 107t-136 42.5t-136 -42.5t-78.5 -107t-23.5 -144.5z
M297 768l184 158l52 -44l-187 -156z" />
    <glyph glyph-name="Ocircumflex" unicode="&#xd4;" horiz-adv-x="760" 
d="M50 338q0 166 87 270t243 104q158 0 244 -99.5t86 -250.5q0 -166 -87 -270t-243 -104q-158 0 -244 99.5t-86 250.5zM142 350q0 -80 23.5 -144.5t78.5 -107t136 -42.5t136 42.5t78.5 107t23.5 144.5t-23.5 144.5t-78.5 107t-136 42.5t-136 -42.5t-78.5 -107t-23.5 -144.5z
M257 736l-49 42l144 138h56l144 -138l-49 -42l-123 123z" />
    <glyph glyph-name="Otilde" unicode="&#xd5;" horiz-adv-x="760" 
d="M50 338q0 166 87 270t243 104q158 0 244 -99.5t86 -250.5q0 -166 -87 -270t-243 -104q-158 0 -244 99.5t-86 250.5zM142 350q0 -80 23.5 -144.5t78.5 -107t136 -42.5t136 42.5t78.5 107t23.5 144.5t-23.5 144.5t-78.5 107t-136 42.5t-136 -42.5t-78.5 -107t-23.5 -144.5z
M257 771l-56 30q22 42 46 61t65 19q38 0 83 -26q41 -23 55 -23q28 0 61 44l48 -34q-37 -46 -54 -58q-23 -15 -53 -15q-40 0 -89 30q-32 19 -47 19q-36 0 -59 -47z" />
    <glyph glyph-name="Odieresis" unicode="&#xd6;" horiz-adv-x="760" 
d="M50 338q0 166 87 270t243 104q158 0 244 -99.5t86 -250.5q0 -166 -87 -270t-243 -104q-158 0 -244 99.5t-86 250.5zM142 350q0 -80 23.5 -144.5t78.5 -107t136 -42.5t136 42.5t78.5 107t23.5 144.5t-23.5 144.5t-78.5 107t-136 42.5t-136 -42.5t-78.5 -107t-23.5 -144.5z
M212 822q0 25 17 42t42 17t42 -17t17 -42t-17 -42t-42 -17t-42 17t-17 42zM430 822q0 25 17 42t42 17t42 -17t17 -42t-17 -42t-42 -17t-42 17t-17 42z" />
    <glyph glyph-name="multiply" unicode="&#xd7;" horiz-adv-x="600" 
d="M254 253l-182 182l46 46l182 -182l182 182l46 -46l-182 -182l182 -182l-46 -46l-182 182l-182 -182l-46 46z" />
    <glyph glyph-name="Oslash" unicode="&#xd8;" horiz-adv-x="760" 
d="M210 130l296 479q-52 35 -126 35q-81 0 -136 -42.5t-78.5 -107t-23.5 -144.5q0 -140 68 -220zM553 566l-295 -476q51 -34 122 -34q81 0 136 42.5t78.5 107t23.5 144.5q0 137 -65 216zM91 -61l75 121q-116 95 -116 278q0 166 87 270t243 104q96 0 166 -39l71 114l52 -34
l-71 -115q112 -96 112 -276q0 -166 -87 -270t-243 -104q-93 0 -162 37l-75 -120z" />
    <glyph glyph-name="Ugrave" unicode="&#xd9;" horiz-adv-x="759" 
d="M274 700v-63h-75q-2 -196 -2 -359q0 -69 7 -107.5t28 -64.5q40 -50 151 -50t156 59q20 26 25 67t6 126l2 329h-87v63h242v-63h-77l-2 -379q0 -66 -11.5 -110.5t-43.5 -83.5q-62 -76 -213 -76q-166 0 -230 87q-24 33 -31.5 76.5t-7.5 134.5q0 137 2 351h-81v63h242z
M279 926l184 -158l-49 -42l-187 156z" />
    <glyph glyph-name="Uacute" unicode="&#xda;" horiz-adv-x="759" 
d="M274 700v-63h-75q-2 -196 -2 -359q0 -69 7 -107.5t28 -64.5q40 -50 151 -50t156 59q20 26 25 67t6 126l2 329h-87v63h242v-63h-77l-2 -379q0 -66 -11.5 -110.5t-43.5 -83.5q-62 -76 -213 -76q-166 0 -230 87q-24 33 -31.5 76.5t-7.5 134.5q0 137 2 351h-81v63h242z
M297 768l184 158l52 -44l-187 -156z" />
    <glyph glyph-name="Ucircumflex" unicode="&#xdb;" horiz-adv-x="759" 
d="M274 700v-63h-75q-2 -196 -2 -359q0 -69 7 -107.5t28 -64.5q40 -50 151 -50t156 59q20 26 25 67t6 126l2 329h-87v63h242v-63h-77l-2 -379q0 -66 -11.5 -110.5t-43.5 -83.5q-62 -76 -213 -76q-166 0 -230 87q-24 33 -31.5 76.5t-7.5 134.5q0 137 2 351h-81v63h242z
M257 736l-49 42l144 138h56l144 -138l-49 -42l-123 123z" />
    <glyph glyph-name="Udieresis" unicode="&#xdc;" horiz-adv-x="759" 
d="M274 700v-63h-75q-2 -196 -2 -359q0 -69 7 -107.5t28 -64.5q40 -50 151 -50t156 59q20 26 25 67t6 126l2 329h-87v63h242v-63h-77l-2 -379q0 -66 -11.5 -110.5t-43.5 -83.5q-62 -76 -213 -76q-166 0 -230 87q-24 33 -31.5 76.5t-7.5 134.5q0 137 2 351h-81v63h242z
M212 822q0 25 17 42t42 17t42 -17t17 -42t-17 -42t-42 -17t-42 17t-17 42zM430 822q0 25 17 42t42 17t42 -17t17 -42t-17 -42t-42 -17t-42 17t-17 42z" />
    <glyph glyph-name="Yacute" unicode="&#xdd;" horiz-adv-x="722" 
d="M8 637v63h242v-63h-73q15 -15 24 -28l173 -240l169 236q6 9 27 32h-86v63h230v-63h-64l-239 -335l-3 -239h79v-63h-238v63h73l3 238l-245 336h-72zM298 768l184 158l52 -44l-187 -156z" />
    <glyph glyph-name="Thorn" unicode="&#xde;" horiz-adv-x="574" 
d="M119 63l4 574h-80v63h251v-63h-85v-57h75q104 0 161 -32q91 -50 91 -166q0 -102 -61.5 -160t-150.5 -58h-119v-101h89v-63h-251v63h76zM208 517l-2 -290h95q71 0 110 39.5t39 106.5q0 90 -63 125q-23 13 -46.5 16t-68.5 3h-64z" />
    <glyph glyph-name="germandbls" unicode="&#xdf;" horiz-adv-x="704" 
d="M120 63l4 390h-90v63h90v26q0 39 11.5 76t38.5 75t82 61t131 23q92 0 154.5 -36.5t62.5 -113.5q0 -30 -6 -50.5t-23.5 -38.5t-29.5 -27t-44 -29q-9 -6 -25 -15.5l-22.5 -13.5t-17.5 -11.5t-15.5 -11.5t-11 -10.5t-8.5 -11.5t-4 -12t-2 -14q0 -26 18 -39.5t60 -28.5
l69 -25q58 -21 86.5 -49.5t28.5 -85.5q0 -83 -52.5 -121.5t-141.5 -38.5q-86 0 -147 18v134h68v-78q46 -11 83 -11q25 0 47.5 5t43.5 24.5t21 51.5q0 36 -27 57t-65.5 32.5t-77 24.5t-65.5 43.5t-27 78.5q0 25 8 44.5t30 39.5t40.5 33t59.5 38q44 28 57.5 47t13.5 47
q0 41 -39 66t-105 25q-43 0 -75 -9.5t-50.5 -27.5t-30 -35.5t-16 -44t-5.5 -40.5t-1 -37l-4 -457h67v-63h-217v63h70z" />
    <glyph glyph-name="agrave" unicode="&#xe0;" horiz-adv-x="574" 
d="M242 51q24 0 47 8t47.5 26.5t39 57.5t14.5 94h-46.5t-43 -1.5t-42.5 -4t-36 -6.5t-32.5 -11.5t-23 -17.5t-16.5 -24t-5 -32q0 -42 27.5 -65.5t69.5 -23.5zM157 444v-80h-74v124q99 40 181 40q103 0 153.5 -43t50.5 -143q0 -16 -3 -121t-3 -158h74v-63h-148v21q0 41 10 91
h-2q-24 -63 -65 -93.5t-108 -30.5q-26 0 -50.5 6t-51 20.5t-42.5 46t-16 75.5q0 35 11.5 61.5t35.5 43.5t51 28t67.5 16t76.5 7t85 2v37q0 72 -28 103t-90 31q-66 0 -115 -21zM186 802l184 -158l-49 -42l-187 156z" />
    <glyph glyph-name="aacute" unicode="&#xe1;" horiz-adv-x="574" 
d="M242 51q24 0 47 8t47.5 26.5t39 57.5t14.5 94h-46.5t-43 -1.5t-42.5 -4t-36 -6.5t-32.5 -11.5t-23 -17.5t-16.5 -24t-5 -32q0 -42 27.5 -65.5t69.5 -23.5zM157 444v-80h-74v124q99 40 181 40q103 0 153.5 -43t50.5 -143q0 -16 -3 -121t-3 -158h74v-63h-148v21q0 41 10 91
h-2q-24 -63 -65 -93.5t-108 -30.5q-26 0 -50.5 6t-51 20.5t-42.5 46t-16 75.5q0 35 11.5 61.5t35.5 43.5t51 28t67.5 16t76.5 7t85 2v37q0 72 -28 103t-90 31q-66 0 -115 -21zM204 644l184 158l52 -44l-187 -156z" />
    <glyph glyph-name="acircumflex" unicode="&#xe2;" horiz-adv-x="574" 
d="M242 51q24 0 47 8t47.5 26.5t39 57.5t14.5 94h-46.5t-43 -1.5t-42.5 -4t-36 -6.5t-32.5 -11.5t-23 -17.5t-16.5 -24t-5 -32q0 -42 27.5 -65.5t69.5 -23.5zM157 444v-80h-74v124q99 40 181 40q103 0 153.5 -43t50.5 -143q0 -16 -3 -121t-3 -158h74v-63h-148v21q0 41 10 91
h-2q-24 -63 -65 -93.5t-108 -30.5q-26 0 -50.5 6t-51 20.5t-42.5 46t-16 75.5q0 35 11.5 61.5t35.5 43.5t51 28t67.5 16t76.5 7t85 2v37q0 72 -28 103t-90 31q-66 0 -115 -21zM152 612l-49 42l144 138h56l144 -138l-49 -42l-123 123z" />
    <glyph glyph-name="atilde" unicode="&#xe3;" horiz-adv-x="574" 
d="M242 51q24 0 47 8t47.5 26.5t39 57.5t14.5 94h-46.5t-43 -1.5t-42.5 -4t-36 -6.5t-32.5 -11.5t-23 -17.5t-16.5 -24t-5 -32q0 -42 27.5 -65.5t69.5 -23.5zM157 444v-80h-74v124q99 40 181 40q103 0 153.5 -43t50.5 -143q0 -16 -3 -121t-3 -158h74v-63h-148v21q0 41 10 91
h-2q-24 -63 -65 -93.5t-108 -30.5q-26 0 -50.5 6t-51 20.5t-42.5 46t-16 75.5q0 35 11.5 61.5t35.5 43.5t51 28t67.5 16t76.5 7t85 2v37q0 72 -28 103t-90 31q-66 0 -115 -21zM164 647l-56 30q22 42 46 61t65 19q37 0 83 -26q41 -23 55 -23q28 0 61 44l48 -34
q-37 -46 -54 -58q-23 -15 -53 -15q-40 0 -89 30q-32 19 -47 19q-35 0 -59 -47z" />
    <glyph glyph-name="adieresis" unicode="&#xe4;" horiz-adv-x="574" 
d="M242 51q24 0 47 8t47.5 26.5t39 57.5t14.5 94h-46.5t-43 -1.5t-42.5 -4t-36 -6.5t-32.5 -11.5t-23 -17.5t-16.5 -24t-5 -32q0 -42 27.5 -65.5t69.5 -23.5zM157 444v-80h-74v124q99 40 181 40q103 0 153.5 -43t50.5 -143q0 -16 -3 -121t-3 -158h74v-63h-148v21q0 41 10 91
h-2q-24 -63 -65 -93.5t-108 -30.5q-26 0 -50.5 6t-51 20.5t-42.5 46t-16 75.5q0 35 11.5 61.5t35.5 43.5t51 28t67.5 16t76.5 7t85 2v37q0 72 -28 103t-90 31q-66 0 -115 -21zM107 698q0 25 17 42t42 17t42 -17t17 -42t-17 -42t-42 -17t-42 17t-17 42zM325 698q0 25 17 42
t42 17t42 -17t17 -42t-17 -42t-42 -17t-42 17t-17 42z" />
    <glyph glyph-name="aring" unicode="&#xe5;" horiz-adv-x="574" 
d="M242 51q24 0 47 8t47.5 26.5t39 57.5t14.5 94h-46.5t-43 -1.5t-42.5 -4t-36 -6.5t-32.5 -11.5t-23 -17.5t-16.5 -24t-5 -32q0 -42 27.5 -65.5t69.5 -23.5zM157 444v-80h-74v124q99 40 181 40q103 0 153.5 -43t50.5 -143q0 -16 -3 -121t-3 -158h74v-63h-148v21q0 41 10 91
h-2q-24 -63 -65 -93.5t-108 -30.5q-26 0 -50.5 6t-51 20.5t-42.5 46t-16 75.5q0 35 11.5 61.5t35.5 43.5t51 28t67.5 16t76.5 7t85 2v37q0 72 -28 103t-90 31q-66 0 -115 -21zM175 700q0 41 29.5 70.5t70.5 29.5t70.5 -29.5t29.5 -70.5t-29.5 -70.5t-70.5 -29.5t-70.5 29.5
t-29.5 70.5zM232 700q0 -55 43 -55t43 55t-43 55q-21 0 -32 -15.5t-11 -39.5z" />
    <glyph glyph-name="ae" unicode="&#xe6;" horiz-adv-x="870" 
d="M70 364l2 130q36 15 89.5 24.5t91.5 9.5q61 0 111.5 -24t68.5 -80h2q2 11 11.5 26t28 33.5t52 31.5t75.5 13q216 0 216 -279l-355 -6q0 -25 1 -41.5t10.5 -47t27 -49.5t53.5 -34t87 -15q82 0 151 38v-74q-87 -32 -165 -32q-168 0 -211 126h-2q-17 -58 -67.5 -92
t-116.5 -34q-79 0 -129 39t-50 110q0 32 8.5 55.5t32.5 47t74.5 37t125.5 16.5l92 4v27q0 77 -34 109t-106 32q-44 0 -103 -18l-2 -83h-70zM134 140q0 -41 31 -65t69 -24q151 0 151 189l-107 -8q-79 -6 -111.5 -23.5t-32.5 -68.5zM463 300l273 6q-3 25 -5 40t-11 40.5
t-22 40t-38 26.5t-58 12q-66 0 -102.5 -41t-36.5 -124z" />
    <glyph glyph-name="ccedilla" unicode="&#xe7;" horiz-adv-x="519" 
d="M472 367h-74v81q-33 12 -86 12q-43 0 -75.5 -13t-52 -33.5t-31.5 -48.5t-16 -53.5t-4 -53.5q0 -16 1.5 -32.5t12.5 -50t30 -57.5t58.5 -43t93.5 -19q47 0 140 29l-4 -72q-14 -9 -66.5 -17t-81.5 -8v-56q42 0 66 -17q27 -21 27 -60q0 -50 -39 -69t-89 -19q-56 0 -90 15
l6 52q37 -16 76 -16q62 0 62 37q0 41 -49 41q-5 0 -27 -5v101q-76 11 -125.5 52.5t-68.5 95t-19 118.5q0 70 23.5 124.5t62.5 85t82.5 45.5t89.5 15q94 0 167 -26v-135z" />
    <glyph glyph-name="egrave" unicode="&#xe8;" horiz-adv-x="556" 
d="M133 314h290q0 63 -37.5 107t-99.5 44q-65 0 -107 -43t-46 -108zM509 251h-376q6 -195 196 -195q79 0 155 39l-3 -71q-29 -14 -80 -25t-90 -11q-125 0 -194.5 68.5t-69.5 200.5q0 119 62.5 195t176.5 76q58 0 101 -20.5t66 -49.5t36 -70.5t16.5 -72t3.5 -64.5zM177 802
l184 -158l-49 -42l-187 156z" />
    <glyph glyph-name="eacute" unicode="&#xe9;" horiz-adv-x="556" 
d="M133 314h290q0 63 -37.5 107t-99.5 44q-65 0 -107 -43t-46 -108zM509 251h-376q6 -195 196 -195q79 0 155 39l-3 -71q-29 -14 -80 -25t-90 -11q-125 0 -194.5 68.5t-69.5 200.5q0 119 62.5 195t176.5 76q58 0 101 -20.5t66 -49.5t36 -70.5t16.5 -72t3.5 -64.5zM195 644
l184 158l52 -44l-187 -156z" />
    <glyph glyph-name="ecircumflex" unicode="&#xea;" horiz-adv-x="556" 
d="M133 314h290q0 63 -37.5 107t-99.5 44q-65 0 -107 -43t-46 -108zM509 251h-376q6 -195 196 -195q79 0 155 39l-3 -71q-29 -14 -80 -25t-90 -11q-125 0 -194.5 68.5t-69.5 200.5q0 119 62.5 195t176.5 76q58 0 101 -20.5t66 -49.5t36 -70.5t16.5 -72t3.5 -64.5zM155 612
l-49 42l144 138h56l144 -138l-49 -42l-123 123z" />
    <glyph glyph-name="edieresis" unicode="&#xeb;" horiz-adv-x="556" 
d="M133 314h290q0 63 -37.5 107t-99.5 44q-65 0 -107 -43t-46 -108zM509 251h-376q6 -195 196 -195q79 0 155 39l-3 -71q-29 -14 -80 -25t-90 -11q-125 0 -194.5 68.5t-69.5 200.5q0 119 62.5 195t176.5 76q58 0 101 -20.5t66 -49.5t36 -70.5t16.5 -72t3.5 -64.5zM110 698
q0 25 17 42t42 17t42 -17t17 -42t-17 -42t-42 -17t-42 17t-17 42zM328 698q0 25 17 42t42 17t42 -17t17 -42t-17 -42t-42 -17t-42 17t-17 42z" />
    <glyph glyph-name="igrave" unicode="&#xec;" 
d="M120 63l4 390h-94v63h176l-4 -453h82v-63h-246v63h82zM56 802l184 -158l-49 -42l-187 156z" />
    <glyph glyph-name="iacute" unicode="&#xed;" 
d="M120 63l4 390h-94v63h176l-4 -453h82v-63h-246v63h82zM74 644l184 158l52 -44l-187 -156z" />
    <glyph glyph-name="icircumflex" unicode="&#xee;" 
d="M120 63l4 390h-94v63h176l-4 -453h82v-63h-246v63h82zM34 612l-49 42l144 138h56l144 -138l-49 -42l-123 123z" />
    <glyph glyph-name="idieresis" unicode="&#xef;" 
d="M120 63l4 390h-94v63h176l-4 -453h82v-63h-246v63h82zM-11 698q0 25 17 42t42 17t42 -17t17 -42t-17 -42t-42 -17t-42 17t-17 42zM207 698q0 25 17 42t42 17t42 -17t17 -42t-17 -42t-42 -17t-42 17t-17 42z" />
    <glyph glyph-name="eth" unicode="&#xf0;" horiz-adv-x="594" 
d="M297 460q-79 0 -121.5 -57t-42.5 -145t42.5 -145t121.5 -57t121.5 57t42.5 145t-42.5 145t-121.5 57zM156 638l101 53q-43 33 -75 53l68 33q35 -24 71 -52l97 52l38 -45l-89 -47q180 -174 180 -403q0 -133 -66.5 -213.5t-183.5 -80.5q-116 0 -183 71.5t-67 184.5
q0 126 67 205t183 79q69 0 125 -46l2 2q-39 85 -121 167l-109 -58z" />
    <glyph glyph-name="ntilde" unicode="&#xf1;" horiz-adv-x="667" 
d="M405 0v63h66q0 40 2 122.5t2 124.5q0 21 -1 35.5t-7.5 38.5t-17.5 38.5t-34.5 26t-56.5 11.5q-64 0 -108.5 -44t-44.5 -140l-2 -213h75v-63h-224v63h66l4 390h-83v63h165q0 -41 -3 -62l-8 -52h2q16 57 69 91.5t114 34.5q177 0 177 -194q0 -45 -2 -138.5t-2 -132.5h76v-63
h-224zM211 647l-56 30q22 42 46 61t65 19q38 0 83 -26q41 -23 55 -23q28 0 61 44l48 -34q-37 -46 -54 -58q-23 -15 -53 -15q-40 0 -89 30q-32 19 -47 19q-36 0 -59 -47z" />
    <glyph glyph-name="ograve" unicode="&#xf2;" horiz-adv-x="594" 
d="M47 244q0 126 67 205t183 79t183 -71.5t67 -184.5q0 -126 -67 -205t-183 -79t-183 71.5t-67 184.5zM133 258q0 -88 42.5 -145t121.5 -57t121.5 57t42.5 145t-42.5 145t-121.5 57t-121.5 -57t-42.5 -145zM196 802l184 -158l-49 -42l-187 156z" />
    <glyph glyph-name="oacute" unicode="&#xf3;" horiz-adv-x="594" 
d="M47 244q0 126 67 205t183 79t183 -71.5t67 -184.5q0 -126 -67 -205t-183 -79t-183 71.5t-67 184.5zM133 258q0 -88 42.5 -145t121.5 -57t121.5 57t42.5 145t-42.5 145t-121.5 57t-121.5 -57t-42.5 -145zM214 644l184 158l52 -44l-187 -156z" />
    <glyph glyph-name="ocircumflex" unicode="&#xf4;" horiz-adv-x="594" 
d="M47 244q0 126 67 205t183 79t183 -71.5t67 -184.5q0 -126 -67 -205t-183 -79t-183 71.5t-67 184.5zM133 258q0 -88 42.5 -145t121.5 -57t121.5 57t42.5 145t-42.5 145t-121.5 57t-121.5 -57t-42.5 -145zM174 612l-49 42l144 138h56l144 -138l-49 -42l-123 123z" />
    <glyph glyph-name="otilde" unicode="&#xf5;" horiz-adv-x="594" 
d="M47 244q0 126 67 205t183 79t183 -71.5t67 -184.5q0 -126 -67 -205t-183 -79t-183 71.5t-67 184.5zM133 258q0 -88 42.5 -145t121.5 -57t121.5 57t42.5 145t-42.5 145t-121.5 57t-121.5 -57t-42.5 -145zM174 647l-56 30q22 42 46 61t65 19q37 0 83 -26q41 -23 55 -23
q28 0 61 44l48 -34q-37 -46 -54 -58q-23 -15 -53 -15q-40 0 -89 30q-32 19 -47 19q-35 0 -59 -47z" />
    <glyph glyph-name="odieresis" unicode="&#xf6;" horiz-adv-x="594" 
d="M47 244q0 126 67 205t183 79t183 -71.5t67 -184.5q0 -126 -67 -205t-183 -79t-183 71.5t-67 184.5zM133 258q0 -88 42.5 -145t121.5 -57t121.5 57t42.5 145t-42.5 145t-121.5 57t-121.5 -57t-42.5 -145zM129 698q0 25 17 42t42 17t42 -17t17 -42t-17 -42t-42 -17t-42 17
t-17 42zM347 698q0 25 17 42t42 17t42 -17t17 -42t-17 -42t-42 -17t-42 17t-17 42z" />
    <glyph glyph-name="divide" unicode="&#xf7;" horiz-adv-x="600" 
d="M47 219v68h506v-68h-506zM238 456q0 26 18 44t44 18t44 -18t18 -44t-18 -44t-44 -18t-44 18t-18 44zM238 50q0 26 18 44t44 18t44 -18t18 -44t-18 -44t-44 -18t-44 18t-18 44z" />
    <glyph glyph-name="oslash" unicode="&#xf8;" horiz-adv-x="594" 
d="M175 114l197 328q-30 18 -75 18q-79 0 -121.5 -57t-42.5 -145q0 -91 42 -144zM418 404l-197 -329q33 -19 76 -19q79 0 121.5 57t42.5 145q0 91 -43 146zM72 -57l61 101q-86 68 -86 200q0 126 67 205t183 79q63 0 112 -23l57 94l51 -30l-57 -95q87 -70 87 -202
q0 -126 -67 -205t-183 -79q-66 0 -114 24l-60 -101z" />
    <glyph glyph-name="ugrave" unicode="&#xf9;" horiz-adv-x="648" 
d="M31 453v63h165q0 -44 -2 -143.5t-2 -161.5q0 -32 4 -56.5t15 -48.5t35 -37t60 -13q43 0 73.5 18.5t45 42.5t23 62t9.5 60t1 54v160h-81v63h165l-4 -453h72v-63h-153q0 41 3 62l8 52h-2q-18 -51 -65 -88.5t-109 -37.5q-103 0 -142.5 56t-39.5 155q0 55 2 144t2 110h-83z
M223 802l184 -158l-49 -42l-187 156z" />
    <glyph glyph-name="uacute" unicode="&#xfa;" horiz-adv-x="648" 
d="M31 453v63h165q0 -44 -2 -143.5t-2 -161.5q0 -32 4 -56.5t15 -48.5t35 -37t60 -13q43 0 73.5 18.5t45 42.5t23 62t9.5 60t1 54v160h-81v63h165l-4 -453h72v-63h-153q0 41 3 62l8 52h-2q-18 -51 -65 -88.5t-109 -37.5q-103 0 -142.5 56t-39.5 155q0 55 2 144t2 110h-83z
M241 644l184 158l52 -44l-187 -156z" />
    <glyph glyph-name="ucircumflex" unicode="&#xfb;" horiz-adv-x="648" 
d="M31 453v63h165q0 -44 -2 -143.5t-2 -161.5q0 -32 4 -56.5t15 -48.5t35 -37t60 -13q43 0 73.5 18.5t45 42.5t23 62t9.5 60t1 54v160h-81v63h165l-4 -453h72v-63h-153q0 41 3 62l8 52h-2q-18 -51 -65 -88.5t-109 -37.5q-103 0 -142.5 56t-39.5 155q0 55 2 144t2 110h-83z
M201 612l-49 42l144 138h56l144 -138l-49 -42l-123 123z" />
    <glyph glyph-name="udieresis" unicode="&#xfc;" horiz-adv-x="648" 
d="M31 453v63h165q0 -44 -2 -143.5t-2 -161.5q0 -32 4 -56.5t15 -48.5t35 -37t60 -13q43 0 73.5 18.5t45 42.5t23 62t9.5 60t1 54v160h-81v63h165l-4 -453h72v-63h-153q0 41 3 62l8 52h-2q-18 -51 -65 -88.5t-109 -37.5q-103 0 -142.5 56t-39.5 155q0 55 2 144t2 110h-83z
M156 698q0 25 17 42t42 17t42 -17t17 -42t-17 -42t-42 -17t-42 17t-17 42zM374 698q0 25 17 42t42 17t42 -17t17 -42t-17 -42t-42 -17t-42 17t-17 42z" />
    <glyph glyph-name="yacute" unicode="&#xfd;" horiz-adv-x="574" 
d="M10 453v63h218v-63h-65l123 -321q10 -30 14 -54h2q4 24 14 54l115 321h-73v63h206v-63h-57l-158 -435q-57 -157 -112 -219t-150 -62q-34 0 -61 9v68q27 -9 58 -9q105 0 159 130l17 42l-189 476h-61zM224 644l184 158l52 -44l-187 -156z" />
    <glyph glyph-name="thorn" unicode="&#xfe;" horiz-adv-x="630" 
d="M115 -188l4 894h-87v63h170l-2 -271q0 -41 -10 -96h2q16 55 66 90.5t117 35.5q102 0 155 -70t53 -179q0 -50 -14 -98t-44 -93t-86.5 -72.5t-133.5 -27.5q-54 0 -106 18l-2 -194h86v-63h-242v63h74zM201 276l-4 -196q69 -24 110 -24q95 0 142.5 64t47.5 157q0 91 -40 137
t-104 46q-63 0 -106.5 -43.5t-45.5 -140.5z" />
    <glyph glyph-name="ydieresis" unicode="&#xff;" horiz-adv-x="574" 
d="M10 453v63h218v-63h-65l123 -321q10 -30 14 -54h2q4 24 14 54l115 321h-73v63h206v-63h-57l-158 -435q-57 -157 -112 -219t-150 -62q-34 0 -61 9v68q27 -9 58 -9q105 0 159 130l17 42l-189 476h-61zM119 698q0 25 17 42t42 17t42 -17t17 -42t-17 -42t-42 -17t-42 17
t-17 42zM337 698q0 25 17 42t42 17t42 -17t17 -42t-17 -42t-42 -17t-42 17t-17 42z" />
    <glyph glyph-name="dotlessi" unicode="&#x131;" 
d="M120 63l4 390h-94v63h176l-4 -453h82v-63h-246v63h82z" />
    <glyph glyph-name="Lslash" unicode="&#x141;" horiz-adv-x="556" 
d="M43 0v63h76l2 227l-105 -79v68l105 79l2 279h-80v63h238v-63h-72l-2 -214l174 128v-68l-174 -128l-2 -292h239l6 109h74l-6 -172h-475z" />
    <glyph glyph-name="lslash" unicode="&#x142;" 
d="M46 0v63h74l2 283l-86 -66v62l86 66l2 298h-100v63h182l-2 -299l90 67v-62l-90 -67l-2 -345h82v-63h-238z" />
    <glyph glyph-name="OE" unicode="&#x152;" horiz-adv-x="1019" 
d="M635 328l-2 -265h253l6 109h74l-6 -172h-359q-42 0 -84 -3q-1 0 -35 -1.5t-51 -1.5q-182 0 -280 92t-98 258q0 171 104.5 266.5t292.5 95.5q42 0 79 -3q75 -3 76 -3h349v-162h-74v99h-243l-2 -246h230v-63h-230zM547 63l4 574q-56 6 -111 6q-137 0 -216 -78t-79 -219
q0 -143 80.5 -216t224.5 -73q13 0 35.5 1.5t40.5 3t21 1.5z" />
    <glyph glyph-name="oe" unicode="&#x153;" horiz-adv-x="907" 
d="M128 258q0 -54 14.5 -97.5t52.5 -74t97 -30.5q37 0 63.5 13t40.5 32.5t22.5 50.5t10.5 57.5t2 62.5q0 44 -5 74.5t-19 58t-42.5 41.5t-72.5 14q-78 0 -121 -60t-43 -142zM509 314h270q0 63 -36 107t-93 44q-67 0 -104 -42.5t-37 -108.5zM865 251h-356q0 -195 176 -195
q79 0 155 39l-3 -71q-29 -14 -80 -25t-90 -11q-158 0 -200 122h-2q-20 -62 -64.5 -92t-118.5 -30q-116 0 -178 72t-62 198q0 116 67.5 193t182.5 77q72 0 115.5 -26.5t68.5 -82.5q17 41 60 75t114 34q56 0 97.5 -20.5t63 -49.5t34.5 -70t16.5 -72t3.5 -65z" />
    <glyph glyph-name="Scaron" unicode="&#x160;" horiz-adv-x="593" 
d="M66 23v154h82v-95q44 -26 137 -26q76 0 121 34t45 96q0 51 -39.5 80.5t-96 44t-113 32t-96 59.5t-39.5 111q0 28 6.5 53.5t24.5 53t46 47.5t75 32.5t107 12.5q42 0 99.5 -9.5t88.5 -23.5v-141h-78v87q-45 19 -117 19q-66 0 -113 -29t-47 -92q0 -41 28.5 -68t71 -38
t92.5 -26.5t92.5 -33t71 -58.5t28.5 -101q0 -56 -22.5 -97.5t-61 -65.5t-84.5 -35.5t-99 -11.5q-51 0 -92 6.5t-76.5 17t-41.5 11.5zM125 874l49 42l123 -123l123 123l49 -42l-144 -138h-56z" />
    <glyph glyph-name="scaron" unicode="&#x161;" horiz-adv-x="500" 
d="M419 497l4 -124h-74l-4 73q-23 19 -91 19q-48 0 -83.5 -18.5t-35.5 -60.5q0 -39 31 -57t95 -29q99 -17 142.5 -50.5t43.5 -96.5q0 -74 -52.5 -119.5t-158.5 -45.5q-44 0 -99 9.5t-78 21.5l-4 132h74l4 -77q48 -23 117 -23q47 0 83 21.5t36 64.5q0 35 -29 52.5t-80 28.5
q-116 25 -161.5 54.5t-45.5 100.5q0 68 49.5 111.5t153.5 43.5q33 0 83.5 -9.5t79.5 -21.5zM78 750l49 42l123 -123l123 123l49 -42l-144 -138h-56z" />
    <glyph glyph-name="Ydieresis" unicode="&#x178;" horiz-adv-x="722" 
d="M8 637v63h242v-63h-73q15 -15 24 -28l173 -240l169 236q6 9 27 32h-86v63h230v-63h-64l-239 -335l-3 -239h79v-63h-238v63h73l3 238l-245 336h-72zM203 822q0 25 17 42t42 17t42 -17t17 -42t-17 -42t-42 -17t-42 17t-17 42zM421 822q0 25 17 42t42 17t42 -17t17 -42
t-17 -42t-42 -17t-42 17t-17 42z" />
    <glyph glyph-name="Zcaron" unicode="&#x17d;" horiz-adv-x="648" 
d="M52 0v59l412 544q4 6 30 34h-341l-6 -105h-74l6 168h515v-63l-406 -538q-9 -12 -31 -36h359l6 106h74l-6 -169h-538zM152 874l49 42l123 -123l123 123l49 -42l-144 -138h-56z" />
    <glyph glyph-name="zcaron" unicode="&#x17e;" horiz-adv-x="537" 
d="M486 150l-8 -150h-427v60l287 344q5 6 48 49h-244l-4 -83h-74l4 146h416v-57l-297 -357l-39 -39h256l8 87h74zM97 750l49 42l123 -123l123 123l49 -42l-144 -138h-56z" />
    <glyph glyph-name="florin" unicode="&#x192;" horiz-adv-x="556" 
d="M226 344h-106v63h110l6 73q9 117 61 174.5t165 57.5q47 0 84 -10l-6 -66q-27 8 -73 8q-78 0 -112 -39.5t-41 -126.5l-6 -71h142v-63h-146l-20 -255l-3.5 -41t-7.5 -49.5t-14.5 -55.5t-24 -51t-35.5 -45.5t-50.5 -29.5t-67.5 -12q-14 0 -29 2t-24 4t-19 5t-11 3l7 68
q30 -14 59 -14q40 0 68 18.5t42.5 54t21 70.5t10.5 85z" />
    <glyph glyph-name="circumflex" unicode="&#x2c6;" 
d="M34 612l-49 42l144 138h56l144 -138l-49 -42l-123 123z" />
    <glyph glyph-name="caron" unicode="&#x2c7;" 
d="M-15 750l49 42l123 -123l123 123l49 -42l-144 -138h-56z" />
    <glyph glyph-name="uni02C9" unicode="&#x2c9;" 
d="M16 672v63h282v-63h-282z" />
    <glyph glyph-name="breve" unicode="&#x2d8;" 
d="M-9 777l61 18q12 -46 35.5 -74t69.5 -28t69.5 28t35.5 74l61 -18q-19 -69 -55 -108t-111 -39t-111 39t-55 108z" />
    <glyph glyph-name="dotaccent" unicode="&#x2d9;" 
d="M98 698q0 25 17 42t42 17t42 -17t17 -42t-17 -42t-42 -17t-42 17t-17 42z" />
    <glyph glyph-name="ring" unicode="&#x2da;" 
d="M57 700q0 41 29.5 70.5t70.5 29.5t70.5 -29.5t29.5 -70.5t-29.5 -70.5t-70.5 -29.5t-70.5 29.5t-29.5 70.5zM114 700q0 -55 43 -55t43 55t-43 55q-21 0 -32 -15.5t-11 -39.5z" />
    <glyph glyph-name="ogonek" unicode="&#x2db;" 
d="M188 0h62l-47.5 -37t-31 -38t-17.5 -56q0 -51 54 -51q32 0 54 5v-48q-26 -8 -64 -8q-62 0 -90 23.5t-28 71.5q0 43 31.5 81t76.5 57z" />
    <glyph glyph-name="tilde" unicode="&#x2dc;" 
d="M34 647l-56 30q22 42 46 61t65 19q38 0 83 -26q41 -23 55 -23q28 0 61 44l48 -34q-37 -46 -54 -58q-23 -15 -53 -15q-40 0 -89 30q-32 19 -47 19q-35 0 -59 -47z" />
    <glyph glyph-name="hungarumlaut" unicode="&#x2dd;" 
d="M-68 644l184 158l52 -44l-187 -156zM146 644l184 158l52 -44l-187 -156z" />
    <glyph glyph-name="uni03A9" unicode="&#x3a9;" horiz-adv-x="720" 
d="M198 62v3q-59 52 -97 132t-38 178q0 146 85.5 240t214.5 94q130 0 211.5 -97.5t81.5 -232.5q0 -101 -40 -183.5t-97 -130.5v-3h151v-62h-241v46q64 42 107.5 125t43.5 194q0 109 -58.5 195t-159.5 86q-100 0 -161.5 -81t-61.5 -202q0 -106 44 -192t106 -125v-46h-240v62
h149z" />
    <glyph glyph-name="uni03BC" unicode="&#x3bc;" horiz-adv-x="648" 
d="M106 -263l8 716h-83v63h165q0 -44 -2 -143.5t-2 -161.5q0 -32 4 -56.5t15 -48.5t35 -37t60 -13q43 0 73.5 18.5t45 42.5t23 62t9.5 60t1 54v160h-81v63h165l-4 -453h72v-63h-153q0 41 3 62l8 52h-2q-18 -51 -65 -88.5t-109 -37.5q-64 0 -98 34l-2 -285h-86z" />
    <glyph glyph-name="pi" unicode="&#x3c0;" horiz-adv-x="571" 
d="M544 455h-81v-308q0 -96 15 -147h-73q-17 27 -17 141v314h-181q-5 -108 -26 -248.5t-47 -206.5h-74q27 78 48 213.5t24 241.5q-77 0 -111 -13l-12 50q42 27 144 27h398z" />
    <glyph glyph-name="endash" unicode="&#x2013;" horiz-adv-x="500" 
d="M0 240v68h500v-68h-500z" />
    <glyph glyph-name="emdash" unicode="&#x2014;" horiz-adv-x="1000" 
d="M0 240v68h1000v-68h-1000z" />
    <glyph glyph-name="quoteleft" unicode="&#x2018;" horiz-adv-x="278" 
d="M173 777l37 -37q-56 -59 -56 -104q0 -29 23 -53t23 -46q0 -24 -15 -39t-40 -15q-37 0 -57 28.5t-20 70.5q0 105 105 195z" />
    <glyph glyph-name="quoteright" unicode="&#x2019;" horiz-adv-x="278" 
d="M106 483l-37 37q56 59 56 104q0 29 -23 53t-23 46q0 24 15 39t40 15q37 0 57 -28.5t20 -70.5q0 -105 -105 -195z" />
    <glyph glyph-name="quotesinglbase" unicode="&#x201a;" horiz-adv-x="278" 
d="M106 -182l-38 38l34 41q22 26 22 65q0 22 -21 46q-25 28 -25 50q0 24 16 39t41 15q36 0 55.5 -28.5t19.5 -70.5q0 -95 -74 -166z" />
    <glyph glyph-name="quotedblleft" unicode="&#x201c;" horiz-adv-x="444" 
d="M350 777l37 -37q-56 -59 -56 -104q0 -29 23 -53t23 -46q0 -24 -15 -39t-40 -15q-37 0 -57 28.5t-20 70.5q0 105 105 195zM160 777l37 -37q-56 -59 -56 -104q0 -29 23 -53t23 -46q0 -24 -15 -39t-40 -15q-37 0 -57 28.5t-20 70.5q0 105 105 195z" />
    <glyph glyph-name="quotedblright" unicode="&#x201d;" horiz-adv-x="444" 
d="M94 483l-37 37q56 59 56 104q0 29 -23 53t-23 46q0 24 15 39t40 15q37 0 57 -28.5t20 -70.5q0 -105 -105 -195zM284 483l-37 37q56 59 56 104q0 29 -23 53t-23 46q0 24 15 39t40 15q37 0 57 -28.5t20 -70.5q0 -105 -105 -195z" />
    <glyph glyph-name="quotedblbase" unicode="&#x201e;" horiz-adv-x="444" 
d="M94 -182l-38 38l34 41q22 26 22 65q0 22 -21 46q-25 28 -25 50q0 24 16 39t41 15q36 0 55.5 -28.5t19.5 -70.5q0 -95 -74 -166zM284 -182l-38 38l34 41q22 26 22 65q0 22 -21 46q-25 28 -25 50q0 24 16 39t41 15q36 0 55.5 -28.5t19.5 -70.5q0 -95 -74 -166z" />
    <glyph glyph-name="dagger" unicode="&#x2020;" horiz-adv-x="556" 
d="M35 415v63h205l1 222h78l-1 -222h203v-63h-203l-3 -610h-78l3 610h-205z" />
    <glyph glyph-name="daggerdbl" unicode="&#x2021;" horiz-adv-x="556" 
d="M240 473l1 227h78l-1 -227h203v-63h-203l-2 -292h205v-63h-205l-2 -250h-78l2 250h-203v63h203l2 292h-205v63h205z" />
    <glyph glyph-name="bullet" unicode="&#x2022;" horiz-adv-x="500" 
d="M75 350q0 73 51 124t124 51t124 -51t51 -124t-51 -124t-124 -51t-124 51t-51 124z" />
    <glyph glyph-name="ellipsis" unicode="&#x2026;" horiz-adv-x="1000" 
d="M105 50q0 26 18.5 44t43.5 18t43.5 -18t18.5 -44t-18.5 -44t-43.5 -18t-43.5 18t-18.5 44zM438 50q0 26 18 44t44 18t44 -18t18 -44t-18 -44t-44 -18t-44 18t-18 44zM771 50q0 26 18.5 44t43.5 18t43.5 -18t18.5 -44t-18.5 -44t-43.5 -18t-43.5 18t-18.5 44z" />
    <glyph glyph-name="perthousand" unicode="&#x2030;" horiz-adv-x="1167" 
d="M978 -12q-72 0 -118 46.5t-46 118.5t46 118.5t118 46.5q68 0 113 -46.5t45 -118.5t-45 -118.5t-113 -46.5zM975 51q42 0 64.5 29.5t22.5 72.5t-22.5 72.5t-64.5 29.5t-64.5 -29.5t-22.5 -72.5t22.5 -72.5t64.5 -29.5zM195 382q-72 0 -118 46.5t-46 118.5t46 118.5
t118 46.5q68 0 113 -46.5t45 -118.5t-45 -118.5t-113 -46.5zM192 445q42 0 64.5 29.5t22.5 72.5t-22.5 72.5t-64.5 29.5t-64.5 -29.5t-22.5 -72.5t22.5 -72.5t64.5 -29.5zM621 -12q-72 0 -118 46.5t-46 118.5t46 118.5t118 46.5q68 0 113 -46.5t45 -118.5t-45 -118.5
t-113 -46.5zM618 51q42 0 64.5 29.5t22.5 72.5t-22.5 72.5t-64.5 29.5t-64.5 -29.5t-22.5 -72.5t22.5 -72.5t64.5 -29.5zM153 -22l450 778l51 -34l-450 -778z" />
    <glyph glyph-name="guilsinglleft" unicode="&#x2039;" horiz-adv-x="296" 
d="M54 302l131 147l57 -45l-114 -130l114 -130l-57 -45l-131 147v56z" />
    <glyph glyph-name="guilsinglright" unicode="&#x203a;" horiz-adv-x="296" 
d="M242 246l-131 -147l-57 45l114 130l-114 130l57 45l131 -147v-56z" />
    <glyph glyph-name="fraction" unicode="&#x2044;" horiz-adv-x="167" 
d="M-167 -22l450 778l51 -34l-450 -778z" />
    <glyph glyph-name="Euro" unicode="&#x20ac;" horiz-adv-x="556" 
d="M568 672l-2 -123h-64v74q-51 17 -108 17q-173 0 -220 -188h332l-28 -63h-314q-2 -14 -2 -20v-20v-10q0 -7 1 -10h295l-29 -63h-259q46 -207 224 -207q83 0 166 33l-2 -72q-69 -29 -169 -29q-130 0 -209 72.5t-97 202.5h-68l29 63h34q-1 3 -1 9v10q0 11 2 41h-64l29 63h45
q24 118 104 186.5t199 68.5q89 0 176 -35z" />
    <glyph glyph-name="afii61289" unicode="&#x2113;" horiz-adv-x="485" 
d="M426 150l36 -32q-67 -125 -187 -125q-80 0 -121 52t-44 132q0 9 -1 13l-57 -47l-23 44q64 53 80 69v273q0 126 44 183t109 57q61 0 92.5 -45t31.5 -117q0 -166 -206 -367v-33q1 -78 32 -116t78 -38q43 0 78.5 28.5t57.5 68.5zM180 535v-221q154 168 154 292
q0 107 -71 107q-33 0 -58 -43t-25 -135z" />
    <glyph glyph-name="trademark" unicode="&#x2122;" horiz-adv-x="990" 
d="M164 284v348h-123v68h332v-68h-123v-348h-86zM837 284v328h-2l-121 -328h-56l-121 328h-2v-328h-82v416h121l112 -296l112 296h121v-416h-82z" />
    <glyph glyph-name="Omega" unicode="&#x2126;" horiz-adv-x="720" 
d="M198 62v3q-59 52 -97 132t-38 178q0 146 85.5 240t214.5 94q130 0 211.5 -97.5t81.5 -232.5q0 -101 -40 -183.5t-97 -130.5v-3h151v-62h-241v46q64 42 107.5 125t43.5 194q0 109 -58.5 195t-159.5 86q-100 0 -161.5 -81t-61.5 -202q0 -106 44 -192t106 -125v-46h-240v62
h149z" />
    <glyph glyph-name="estimated" unicode="&#x212e;" horiz-adv-x="873" 
d="M838 340h-651q-5 0 -5 -4v-197q0 -13 8 -23q104 -107 246 -107q155 0 260 120h57q-54 -65 -138 -102.5t-180 -37.5q-166 0 -283.5 105.5t-117.5 254.5q0 151 117.5 257t283.5 106q167 0 285 -106t118 -257v-9zM690 366v198q0 14 -9 23q-106 103 -245 103
q-141 0 -245 -106q-9 -9 -9 -25v-193q0 -7 5 -7h499q4 0 4 7z" />
    <glyph glyph-name="partialdiff" unicode="&#x2202;" horiz-adv-x="546" 
d="M102 672l-26 55q69 56 166 56q105 0 179 -98t74 -280q0 -183 -68 -298t-192 -115q-92 0 -142.5 69t-50.5 162q0 113 63 184t150 71q61 0 104.5 -32t60.5 -64h1q1 12 1 44q0 129 -54.5 211.5t-132.5 82.5q-77 0 -133 -48zM241 55h1q68 0 114 74t56 179q-14 39 -53.5 74
t-91.5 35q-62 0 -106 -57t-44 -137q0 -74 34 -121t90 -47z" />
    <glyph glyph-name="Delta" unicode="&#x2206;" horiz-adv-x="648" 
d="M31 0v51l251 665h87l247 -664v-52h-585zM107 61h428l-145 382q-8 25 -33.5 93.5t-32.5 92.5h-4q-5 -21 -29.5 -86t-30.5 -84z" />
    <glyph glyph-name="product" unicode="&#x220f;" horiz-adv-x="698" 
d="M672 629h-109v-725h-74v725h-280v-725h-74v725h-109v68h646v-68z" />
    <glyph glyph-name="summation" unicode="&#x2211;" horiz-adv-x="554" 
d="M531 -96h-508v50l269 345l-257 346v52h480v-64h-377v-4l239 -319l-258 -332v-4h412v-70z" />
    <glyph glyph-name="minus" unicode="&#x2212;" horiz-adv-x="600" 
d="M47 219v68h506v-68h-506z" />
    <glyph glyph-name="uni2215" unicode="&#x2215;" horiz-adv-x="167" 
d="M-167 -22l450 778l51 -34l-450 -778z" />
    <glyph glyph-name="uni2219" unicode="&#x2219;" horiz-adv-x="278" 
d="M77 287q0 25 18.5 43.5t43.5 18.5t43.5 -18.5t18.5 -43.5t-18.5 -43.5t-43.5 -18.5t-43.5 18.5t-18.5 43.5z" />
    <glyph glyph-name="radical" unicode="&#x221a;" horiz-adv-x="571" 
d="M571 829l-222 -978h-65l-160 463l-75 -28l-15 45l136 54l128 -373q11 -43 17 -72h1q3 20 14 72l186 817h55z" />
    <glyph glyph-name="infinity" unicode="&#x221e;" horiz-adv-x="776" 
d="M725 290v-1q0 -70 -45.5 -114.5t-107.5 -44.5q-45 0 -86 28t-97 91q-34 -39 -55.5 -59.5t-58.5 -40t-75 -19.5q-61 0 -105 45t-44 111q0 68 44.5 113t111.5 45q52 0 95 -31.5t91 -88.5q28 32 40.5 45t38.5 35t52 31t56 9q65 -1 105 -43.5t40 -110.5zM207 177h1
q15 0 31 5.5t27.5 11.5t28 20.5t23.5 21.5t24 25.5t21 22.5q-54 65 -80 84q-39 30 -82 30q-46 0 -73 -33t-27 -81q0 -45 29.5 -76t76.5 -31zM574 398h-1q-23 0 -48.5 -13.5t-40 -26.5t-38.5 -38.5l-29 -30.5q57 -63 89 -87.5t70 -24.5q45 0 72 33t27 76q0 52 -28.5 82
t-72.5 30z" />
    <glyph glyph-name="integral" unicode="&#x222b;" horiz-adv-x="357" 
d="M340 839l-12 -53q-15 11 -37 11q-32 0 -50 -24q-34 -39 -34 -178q0 -78 6.5 -249.5t6.5 -253.5q0 -136 -42 -201q-33 -52 -99 -52q-41 0 -66 17l13 54q27 -12 46 -12q29 0 46 23q34 43 34 172q0 83 -6.5 257t-6.5 252q0 157 53 211q36 39 94 39q32 0 54 -13z" />
    <glyph glyph-name="approxequal" unicode="&#x2248;" horiz-adv-x="563" 
d="M485 430l31 -27q-49 -94 -129 -94q-28 0 -51.5 9t-65.5 33q-60 33 -93 33q-32 0 -54 -19t-46 -55l-31 26q49 96 137 96q17 0 35 -5t28 -9.5t28 -14.5t21 -12q5 -3 16.5 -9l16.5 -8.5l14 -7t15.5 -6t15 -3t17.5 -1.5q29 0 51 18t44 56zM485 260l31 -27q-49 -94 -129 -94
q-28 0 -51.5 9t-65.5 33q-62 34 -93 34q-32 0 -54.5 -19.5t-45.5 -55.5l-31 26q49 96 137 96q14 0 27 -2.5t26.5 -8t20.5 -9t21.5 -12t16.5 -9.5q3 -2 15.5 -8.5t16 -8.5t14 -7t16.5 -6.5t15 -3t18 -1.5q29 0 51 18t44 56z" />
    <glyph glyph-name="notequal" unicode="&#x2260;" horiz-adv-x="563" 
d="M399 504l-45 -99h157v-48h-176l-68 -147h244v-48h-263l-54 -118l-39 18l46 100h-150v48h170l67 147h-237v48h257l53 116z" />
    <glyph glyph-name="lessequal" unicode="&#x2264;" horiz-adv-x="563" 
d="M509 96l-452 225v51l452 225v-58l-400 -190v-3l400 -192v-58zM512 5h-461v50h461v-50z" />
    <glyph glyph-name="greaterequal" unicode="&#x2265;" horiz-adv-x="563" 
d="M58 597l451 -225v-51l-451 -225v58l399 192v2l-399 191v58zM511 5h-459v50h459v-50z" />
    <glyph glyph-name="lozenge" unicode="&#x25ca;" horiz-adv-x="572" 
d="M517 348l-202 -394h-61l-199 394l201 395h61zM448 346l-143 281q-12 27 -19 52h-2q-12 -36 -20 -52l-141 -277l143 -282q12 -26 18 -51h4q7 29 17 50z" />
    <glyph glyph-name="A.sc" unicode="&#xe000;" horiz-adv-x="611" 
d="M227 265h150l-64 183q-5 16 -8 28h-2q-4 -18 -9 -32zM12 0v58h53l202 486h86l188 -486h58v-58h-215v58h65l-53 149h-190l-59 -149h71v-58h-206z" />
    <glyph glyph-name="AE.sc" unicode="&#xe001;" horiz-adv-x="833" 
d="M12 0v58h53l278 486h395l5 -137h-62l-7 79h-162l-2 -187h168v-58h-168l-1 -183h186l8 88h68l-8 -146h-406v58h74l2 183h-188l-98 -183h71v-58h-206zM375 486l-98 -187h156l2 187h-60z" />
    <glyph glyph-name="Aacute.sc" unicode="&#xe002;" horiz-adv-x="611" 
d="M227 265h150l-64 183q-5 16 -8 28h-2q-4 -18 -9 -32zM12 0v58h53l202 486h86l188 -486h58v-58h-215v58h65l-53 149h-190l-59 -149h71v-58h-206zM223 644l184 158l52 -44l-187 -156z" />
    <glyph glyph-name="Acircumflex.sc" unicode="&#xe003;" horiz-adv-x="611" 
d="M227 265h150l-64 183q-5 16 -8 28h-2q-4 -18 -9 -32zM12 0v58h53l202 486h86l188 -486h58v-58h-215v58h65l-53 149h-190l-59 -149h71v-58h-206zM171 612l-49 42l144 138h56l144 -138l-49 -42l-123 123z" />
    <glyph glyph-name="Adieresis.sc" unicode="&#xe004;" horiz-adv-x="611" 
d="M227 265h150l-64 183q-5 16 -8 28h-2q-4 -18 -9 -32zM12 0v58h53l202 486h86l188 -486h58v-58h-215v58h65l-53 149h-190l-59 -149h71v-58h-206zM126 698q0 25 17 42t42 17t42 -17t17 -42t-17 -42t-42 -17t-42 17t-17 42zM344 698q0 25 17 42t42 17t42 -17t17 -42t-17 -42
t-42 -17t-42 17t-17 42z" />
    <glyph glyph-name="Agrave.sc" unicode="&#xe005;" horiz-adv-x="611" 
d="M227 265h150l-64 183q-5 16 -8 28h-2q-4 -18 -9 -32zM12 0v58h53l202 486h86l188 -486h58v-58h-215v58h65l-53 149h-190l-59 -149h71v-58h-206zM205 802l184 -158l-49 -42l-187 156z" />
    <glyph glyph-name="Aring.sc" unicode="&#xe006;" horiz-adv-x="611" 
d="M227 265h150l-64 183q-5 16 -8 28h-2q-4 -18 -9 -32zM12 0v58h53l202 486h86l188 -486h58v-58h-215v58h65l-53 149h-190l-59 -149h71v-58h-206zM216 655q0 41 29.5 70.5t70.5 29.5t70.5 -29.5t29.5 -70.5t-29.5 -70.5t-70.5 -29.5t-70.5 29.5t-29.5 70.5zM273 655
q0 -55 43 -55t43 55t-43 55q-21 0 -32 -15.5t-11 -39.5z" />
    <glyph glyph-name="Atilde.sc" unicode="&#xe007;" horiz-adv-x="611" 
d="M227 265h150l-64 183q-5 16 -8 28h-2q-4 -18 -9 -32zM12 0v58h53l202 486h86l188 -486h58v-58h-215v58h65l-53 149h-190l-59 -149h71v-58h-206zM183 647l-56 30q22 42 46 61t65 19q38 0 83 -26q41 -23 55 -23q28 0 61 44l48 -34q-37 -46 -54 -58q-23 -15 -53 -15
q-40 0 -89 30q-32 19 -47 19q-36 0 -59 -47z" />
    <glyph glyph-name="B.sc" unicode="&#xe008;" horiz-adv-x="500" 
d="M43 0v58h74l3 428h-77v58h221q170 0 170 -139q0 -41 -29 -75t-71 -41v-2q60 -6 95.5 -40t35.5 -91q0 -65 -47 -110.5t-133 -45.5h-242zM196 253l-1 -195h80q54 0 83 27t29 71q0 97 -137 97h-54zM198 486l-2 -175h48q57 0 84.5 26t27.5 66q0 39 -25 61t-73 22h-60z" />
    <glyph glyph-name="C.sc" unicode="&#xe009;" horiz-adv-x="556" 
d="M436 156h66l-2 -141q-76 -26 -171 -26q-143 0 -216.5 78.5t-73.5 197.5q0 132 85.5 211t217.5 79q86 0 159 -33v-130h-62l-2 79q-44 16 -99 16q-98 0 -155.5 -58.5t-57.5 -157.5q0 -97 57 -155.5t158 -58.5q52 0 90 8z" />
    <glyph glyph-name="Ccedilla.sc" unicode="&#xe00a;" horiz-adv-x="556" 
d="M436 156h66l-2 -141q-75 -26 -168 -26v-57q42 0 66 -17q27 -21 27 -60q0 -50 -39 -69t-89 -19q-56 0 -90 15l6 52q37 -16 76 -16q62 0 62 37q0 41 -49 41q-4 0 -27 -5v102q-117 15 -176.5 90.5t-59.5 181.5q0 132 85.5 211t217.5 79q86 0 159 -33v-130h-62l-2 79
q-44 16 -99 16q-98 0 -155.5 -58.5t-57.5 -157.5q0 -97 57 -155.5t158 -58.5q52 0 90 8z" />
    <glyph glyph-name="D.sc" unicode="&#xe00b;" horiz-adv-x="630" 
d="M43 0v58h74l3 428h-77v58h290q124 0 189 -76t65 -191q0 -117 -74.5 -197t-216.5 -80h-253zM198 486l-3 -428h111q93 0 146 65t53 151q0 92 -50 152t-139 60h-118z" />
    <glyph glyph-name="E.sc" unicode="&#xe00c;" horiz-adv-x="519" 
d="M43 0v58h74l3 428h-77v58h395l6 -140h-64l-4 82h-178l-2 -180h174v-58h-174l-1 -190h186l8 88h68l-8 -146h-406z" />
    <glyph glyph-name="Eacute.sc" unicode="&#xe00d;" horiz-adv-x="519" 
d="M43 0v58h74l3 428h-77v58h395l6 -140h-64l-4 82h-178l-2 -180h174v-58h-174l-1 -190h186l8 88h68l-8 -146h-406zM177 644l184 158l52 -44l-187 -156z" />
    <glyph glyph-name="Ecircumflex.sc" unicode="&#xe00e;" horiz-adv-x="519" 
d="M43 0v58h74l3 428h-77v58h395l6 -140h-64l-4 82h-178l-2 -180h174v-58h-174l-1 -190h186l8 88h68l-8 -146h-406zM137 612l-49 42l144 138h56l144 -138l-49 -42l-123 123z" />
    <glyph glyph-name="Edieresis.sc" unicode="&#xe00f;" horiz-adv-x="519" 
d="M43 0v58h74l3 428h-77v58h395l6 -140h-64l-4 82h-178l-2 -180h174v-58h-174l-1 -190h186l8 88h68l-8 -146h-406zM92 698q0 25 17 42t42 17t42 -17t17 -42t-17 -42t-42 -17t-42 17t-17 42zM310 698q0 25 17 42t42 17t42 -17t17 -42t-17 -42t-42 -17t-42 17t-17 42z" />
    <glyph glyph-name="Egrave.sc" unicode="&#xe010;" horiz-adv-x="519" 
d="M43 0v58h74l3 428h-77v58h395l6 -140h-64l-4 82h-178l-2 -180h174v-58h-174l-1 -190h186l8 88h68l-8 -146h-406zM159 802l184 -158l-49 -42l-187 156z" />
    <glyph glyph-name="Eth.sc" unicode="&#xe011;" horiz-adv-x="630" 
d="M43 0v58h74l1 190h-75v58h75l2 180h-77v58h290q124 0 189 -76t65 -191q0 -117 -74.5 -197t-216.5 -80h-253zM332 306v-58h-136l-1 -190h111q93 0 146 65t53 151q0 92 -50 152t-139 60h-118l-2 -180h136z" />
    <glyph glyph-name="F.sc" unicode="&#xe012;" horiz-adv-x="481" 
d="M43 0v58h74l3 428h-77v58h395v-141h-67l-2 83h-171l-1 -187h183v-58h-184l-1 -183h77v-58h-229z" />
    <glyph glyph-name="G.sc" unicode="&#xe013;" horiz-adv-x="612" 
d="M434 190h-78v58h213v-58h-60l-6 -175q-78 -26 -174 -26q-143 0 -216.5 78.5t-73.5 197.5q0 132 85.5 211t217.5 79q92 0 170 -33v-130h-62l-2 78q-54 17 -110 17q-98 0 -155.5 -58.5t-57.5 -157.5q0 -97 57 -155.5t158 -58.5q52 0 90 10z" />
    <glyph glyph-name="H.sc" unicode="&#xe014;" horiz-adv-x="667" 
d="M43 0v58h74l3 428h-77v58h229v-58h-74l-2 -180h274l2 180h-77v58h229v-58h-74l-3 -428h77v-58h-229v58h74l1 190h-274l-1 -190h77v-58h-229z" />
    <glyph glyph-name="I.sc" unicode="&#xe015;" horiz-adv-x="315" 
d="M43 0v58h74l3 428h-77v58h229v-58h-74l-3 -428h77v-58h-229z" />
    <glyph glyph-name="Iacute.sc" unicode="&#xe016;" horiz-adv-x="315" 
d="M43 0v58h74l3 428h-77v58h229v-58h-74l-3 -428h77v-58h-229zM75 644l184 158l52 -44l-187 -156z" />
    <glyph glyph-name="Icircumflex.sc" unicode="&#xe017;" horiz-adv-x="315" 
d="M43 0v58h74l3 428h-77v58h229v-58h-74l-3 -428h77v-58h-229zM35 612l-49 42l144 138h56l144 -138l-49 -42l-123 123z" />
    <glyph glyph-name="Idieresis.sc" unicode="&#xe018;" horiz-adv-x="315" 
d="M43 0v58h74l3 428h-77v58h229v-58h-74l-3 -428h77v-58h-229zM-10 698q0 25 17 42t42 17t42 -17t17 -42t-17 -42t-42 -17t-42 17t-17 42zM208 698q0 25 17 42t42 17t42 -17t17 -42t-17 -42t-42 -17t-42 17t-17 42z" />
    <glyph glyph-name="Igrave.sc" unicode="&#xe019;" horiz-adv-x="315" 
d="M43 0v58h74l3 428h-77v58h229v-58h-74l-3 -428h77v-58h-229zM57 802l184 -158l-49 -42l-187 156z" />
    <glyph glyph-name="J.sc" unicode="&#xe01a;" horiz-adv-x="296" 
d="M5 -140l-28 57q54 30 82 57t43.5 74t15.5 124l2 314h-77v58h229v-58h-74l-2 -313q-1 -126 -43.5 -197.5t-147.5 -115.5z" />
    <glyph glyph-name="K.sc" unicode="&#xe01b;" horiz-adv-x="611" 
d="M43 0v58h74l3 428h-77v58h229v-58h-74l-1 -193l224 193h-67v58h210v-58h-47l-243 -206l249 -222h57v-58h-226v58h67l-224 200l-2 -200h77v-58h-229z" />
    <glyph glyph-name="L.sc" unicode="&#xe01c;" horiz-adv-x="481" 
d="M43 0v58h74l3 428h-77v58h223v-58h-68l-3 -428h184l9 90h62l-7 -148h-400z" />
    <glyph glyph-name="Lslash.sc" unicode="&#xe01d;" horiz-adv-x="481" 
d="M43 0v58h74l1 151l-75 -52v64l76 53l1 212h-77v58h223v-58h-68l-1 -157l123 85v-64l-123 -86l-2 -206h184l9 90h62l-7 -148h-400z" />
    <glyph glyph-name="M.sc" unicode="&#xe01e;" horiz-adv-x="796" 
d="M43 0v58h67l3 428h-70v58h183l178 -444l173 444h176v-58h-70l3 -428h67v-58h-209v58h70l-3 395h-2q-9 -29 -16 -49l-160 -404h-72l-158 393q-12 33 -15 55h-3l-3 -390h70v-58h-209z" />
    <glyph glyph-name="N.sc" unicode="&#xe01f;" horiz-adv-x="685" 
d="M45 0v58h74l3 428h-77v58h150l275 -370q19 -26 28 -54h2l3 366h-74v58h211v-58h-65l-3 -486h-68l-284 385q-18 23 -24 46h-2l-3 -373h77v-58h-223z" />
    <glyph glyph-name="Ntilde.sc" unicode="&#xe020;" horiz-adv-x="685" 
d="M45 0v58h74l3 428h-77v58h150l275 -370q19 -26 28 -54h2l3 366h-74v58h211v-58h-65l-3 -486h-68l-284 385q-18 23 -24 46h-2l-3 -373h77v-58h-223zM220 647l-56 30q22 42 46 61t65 19q37 0 83 -26q41 -23 55 -23q28 0 61 44l48 -34q-37 -46 -54 -58q-23 -15 -53 -15
q-40 0 -89 30q-32 19 -47 19q-35 0 -59 -47z" />
    <glyph glyph-name="O.sc" unicode="&#xe021;" horiz-adv-x="612" 
d="M306 57q88 0 134.5 58.5t46.5 156.5t-46.5 156.5t-134.5 58.5t-134.5 -58.5t-46.5 -156.5t46.5 -156.5t134.5 -58.5zM39 272q0 118 71.5 200.5t195.5 82.5q71 0 124 -22.5t83.5 -63t45 -89.5t14.5 -108q0 -118 -71.5 -200.5t-195.5 -82.5q-71 0 -124 22.5t-83.5 63
t-45 89.5t-14.5 108z" />
    <glyph glyph-name="OE.sc" unicode="&#xe022;" horiz-adv-x="833" 
d="M758 404h-64l-4 82h-178l-2 -180h174v-58h-174l-1 -190h186l8 88h68l-8 -146h-311q-28 0 -57 -3q-30 -3 -58 -3q-139 0 -213 74.5t-74 196.5q0 133 77 209t199 76q26 0 58 -3q31 -3 60 -3h308zM431 63l3 418q-48 6 -94 6q-93 0 -148.5 -56t-55.5 -162q0 -99 57 -155.5
t158 -56.5q37 0 80 6z" />
    <glyph glyph-name="Oacute.sc" unicode="&#xe023;" horiz-adv-x="612" 
d="M306 57q88 0 134.5 58.5t46.5 156.5t-46.5 156.5t-134.5 58.5t-134.5 -58.5t-46.5 -156.5t46.5 -156.5t134.5 -58.5zM39 272q0 118 71.5 200.5t195.5 82.5q71 0 124 -22.5t83.5 -63t45 -89.5t14.5 -108q0 -118 -71.5 -200.5t-195.5 -82.5q-71 0 -124 22.5t-83.5 63
t-45 89.5t-14.5 108zM223 644l184 158l52 -44l-187 -156z" />
    <glyph glyph-name="Ocircumflex.sc" unicode="&#xe024;" horiz-adv-x="612" 
d="M306 57q88 0 134.5 58.5t46.5 156.5t-46.5 156.5t-134.5 58.5t-134.5 -58.5t-46.5 -156.5t46.5 -156.5t134.5 -58.5zM39 272q0 118 71.5 200.5t195.5 82.5q71 0 124 -22.5t83.5 -63t45 -89.5t14.5 -108q0 -118 -71.5 -200.5t-195.5 -82.5q-71 0 -124 22.5t-83.5 63
t-45 89.5t-14.5 108zM183 612l-49 42l144 138h56l144 -138l-49 -42l-123 123z" />
    <glyph glyph-name="Odieresis.sc" unicode="&#xe025;" horiz-adv-x="612" 
d="M306 57q88 0 134.5 58.5t46.5 156.5t-46.5 156.5t-134.5 58.5t-134.5 -58.5t-46.5 -156.5t46.5 -156.5t134.5 -58.5zM39 272q0 118 71.5 200.5t195.5 82.5q71 0 124 -22.5t83.5 -63t45 -89.5t14.5 -108q0 -118 -71.5 -200.5t-195.5 -82.5q-71 0 -124 22.5t-83.5 63
t-45 89.5t-14.5 108zM138 698q0 25 17 42t42 17t42 -17t17 -42t-17 -42t-42 -17t-42 17t-17 42zM356 698q0 25 17 42t42 17t42 -17t17 -42t-17 -42t-42 -17t-42 17t-17 42z" />
    <glyph glyph-name="Ograve.sc" unicode="&#xe026;" horiz-adv-x="612" 
d="M306 57q88 0 134.5 58.5t46.5 156.5t-46.5 156.5t-134.5 58.5t-134.5 -58.5t-46.5 -156.5t46.5 -156.5t134.5 -58.5zM39 272q0 118 71.5 200.5t195.5 82.5q71 0 124 -22.5t83.5 -63t45 -89.5t14.5 -108q0 -118 -71.5 -200.5t-195.5 -82.5q-71 0 -124 22.5t-83.5 63
t-45 89.5t-14.5 108zM205 802l184 -158l-49 -42l-187 156z" />
    <glyph glyph-name="Oslash.sc" unicode="&#xe027;" horiz-adv-x="612" 
d="M176 110l219 355q-38 22 -89 22q-88 0 -134.5 -58.5t-46.5 -156.5q0 -105 51 -162zM436 433l-219 -354q35 -22 89 -22q88 0 134.5 58.5t46.5 156.5q0 104 -51 161zM117 -83l-44 27l61 98q-95 71 -95 230q0 118 71.5 200.5t195.5 82.5q75 0 129 -26l60 98l44 -27l-60 -97
q94 -73 94 -231q0 -118 -71.5 -200.5t-195.5 -82.5q-77 0 -129 26z" />
    <glyph glyph-name="Otilde.sc" unicode="&#xe028;" horiz-adv-x="612" 
d="M306 57q88 0 134.5 58.5t46.5 156.5t-46.5 156.5t-134.5 58.5t-134.5 -58.5t-46.5 -156.5t46.5 -156.5t134.5 -58.5zM39 272q0 118 71.5 200.5t195.5 82.5q71 0 124 -22.5t83.5 -63t45 -89.5t14.5 -108q0 -118 -71.5 -200.5t-195.5 -82.5q-71 0 -124 22.5t-83.5 63
t-45 89.5t-14.5 108zM183 647l-56 30q22 42 46 61t65 19q38 0 83 -26q41 -23 55 -23q28 0 61 44l48 -34q-37 -46 -54 -58q-23 -15 -53 -15q-40 0 -89 30q-32 19 -47 19q-36 0 -59 -47z" />
    <glyph glyph-name="P.sc" unicode="&#xe029;" horiz-adv-x="481" 
d="M198 486l-1 -202h72q47 0 74 29t27 75q0 47 -27.5 72.5t-72.5 25.5h-72zM43 0v58h74l3 428h-77v58h241q83 0 125.5 -43t42.5 -112q0 -74 -53 -118.5t-128 -44.5h-75l-1 -168h77v-58h-229z" />
    <glyph glyph-name="Q.sc" unicode="&#xe02a;" horiz-adv-x="611" 
d="M663 -70v-63q-28 -7 -51 -7q-44 0 -93 18.5t-85.5 41.5t-79.5 44t-74 24q-117 13 -179 85.5t-62 190.5q0 125 71 208t203 83q124 0 192 -76.5t68 -197.5q0 -106 -50.5 -181.5t-129.5 -98.5v-2q42 -1 118 -36t117 -35q11 0 35 2zM125 263q0 -84 46 -145t140 -61
q93 0 134.5 62t41.5 162q0 93 -44.5 149.5t-129.5 56.5q-188 0 -188 -224z" />
    <glyph glyph-name="R.sc" unicode="&#xe02b;" horiz-adv-x="537" 
d="M198 486l-1 -187h58q57 0 85.5 26.5t28.5 73.5q0 49 -24.5 68t-84.5 19h-62zM43 0v58h74l3 428h-77v58h214q104 0 147 -36t43 -109q0 -56 -36 -92.5t-93 -46.5v-2q25 -5 39 -17.5t35 -49.5q52 -89 71 -111t50 -22q4 0 16 2v-58q-24 -2 -31 -2q-59 0 -87 23.5t-74 109.5
q-39 73 -58 90.5t-58 17.5h-24l-2 -183h68v-58h-220z" />
    <glyph glyph-name="S.sc" unicode="&#xe02c;" horiz-adv-x="500" 
d="M56 22v130h67l2 -76q52 -24 114 -24t92.5 29t30.5 68q0 34 -21 51.5t-85 32.5q-121 29 -160.5 64.5t-39.5 96.5q0 73 55 117t163 44q82 0 142 -31v-121h-67l-2 71q-36 18 -87 18q-55 0 -88.5 -22.5t-33.5 -62.5q0 -36 28.5 -57.5t116.5 -41.5q86 -19 123.5 -55t37.5 -97
q0 -71 -55.5 -119t-144.5 -48q-46 0 -103.5 10.5t-84.5 22.5z" />
    <glyph glyph-name="Scaron.sc" unicode="&#xe02d;" horiz-adv-x="500" 
d="M56 22v130h67l2 -76q52 -24 114 -24t92.5 29t30.5 68q0 34 -21 51.5t-85 32.5q-121 29 -160.5 64.5t-39.5 96.5q0 73 55 117t163 44q82 0 142 -31v-121h-67l-2 71q-36 18 -87 18q-55 0 -88.5 -22.5t-33.5 -62.5q0 -36 28.5 -57.5t116.5 -41.5q86 -19 123.5 -55t37.5 -97
q0 -71 -55.5 -119t-144.5 -48q-46 0 -103.5 10.5t-84.5 22.5zM78 750l49 42l123 -123l123 123l49 -42l-144 -138h-56z" />
    <glyph glyph-name="T.sc" unicode="&#xe02e;" horiz-adv-x="555" 
d="M163 0v58h74l3 428h-141l-7 -83h-63l7 141h483l7 -141h-63l-7 83h-138l-3 -428h77v-58h-229z" />
    <glyph glyph-name="Thorn.sc" unicode="&#xe02f;" horiz-adv-x="481" 
d="M198 391l-1 -202h72q47 0 74 29t27 75q0 47 -27.5 72.5t-72.5 25.5h-72zM43 0v58h74l3 428h-77v58h229v-58h-74v-37h86q83 0 125.5 -43t42.5 -112q0 -74 -53 -118.5t-128 -44.5h-75l-1 -73h77v-58h-229z" />
    <glyph glyph-name="U.sc" unicode="&#xe030;" horiz-adv-x="648" 
d="M110 486h-75v58h216v-58h-63q0 -15 -1.5 -123t-1.5 -162q0 -75 29 -112t101 -37q85 0 117.5 38.5t33.5 120.5l3 275h-75v58h211v-58h-58l-3 -257q-1 -128 -55 -184t-173 -56q-110 0 -159.5 49t-49.5 152q0 43 0.5 91.5t1.5 108.5t1 96z" />
    <glyph glyph-name="Uacute.sc" unicode="&#xe031;" horiz-adv-x="648" 
d="M110 486h-75v58h216v-58h-63q0 -15 -1.5 -123t-1.5 -162q0 -75 29 -112t101 -37q85 0 117.5 38.5t33.5 120.5l3 275h-75v58h211v-58h-58l-3 -257q-1 -128 -55 -184t-173 -56q-110 0 -159.5 49t-49.5 152q0 43 0.5 91.5t1.5 108.5t1 96zM241 644l184 158l52 -44l-187 -156
z" />
    <glyph glyph-name="Ucircumflex.sc" unicode="&#xe032;" horiz-adv-x="648" 
d="M110 486h-75v58h216v-58h-63q0 -15 -1.5 -123t-1.5 -162q0 -75 29 -112t101 -37q85 0 117.5 38.5t33.5 120.5l3 275h-75v58h211v-58h-58l-3 -257q-1 -128 -55 -184t-173 -56q-110 0 -159.5 49t-49.5 152q0 43 0.5 91.5t1.5 108.5t1 96zM201 612l-49 42l144 138h56
l144 -138l-49 -42l-123 123z" />
    <glyph glyph-name="Udieresis.sc" unicode="&#xe033;" horiz-adv-x="648" 
d="M110 486h-75v58h216v-58h-63q0 -15 -1.5 -123t-1.5 -162q0 -75 29 -112t101 -37q85 0 117.5 38.5t33.5 120.5l3 275h-75v58h211v-58h-58l-3 -257q-1 -128 -55 -184t-173 -56q-110 0 -159.5 49t-49.5 152q0 43 0.5 91.5t1.5 108.5t1 96zM156 698q0 25 17 42t42 17t42 -17
t17 -42t-17 -42t-42 -17t-42 17t-17 42zM374 698q0 25 17 42t42 17t42 -17t17 -42t-17 -42t-42 -17t-42 17t-17 42z" />
    <glyph glyph-name="Ugrave.sc" unicode="&#xe034;" horiz-adv-x="648" 
d="M110 486h-75v58h216v-58h-63q0 -15 -1.5 -123t-1.5 -162q0 -75 29 -112t101 -37q85 0 117.5 38.5t33.5 120.5l3 275h-75v58h211v-58h-58l-3 -257q-1 -128 -55 -184t-173 -56q-110 0 -159.5 49t-49.5 152q0 43 0.5 91.5t1.5 108.5t1 96zM223 802l184 -158l-49 -42
l-187 156z" />
    <glyph glyph-name="V.sc" unicode="&#xe035;" horiz-adv-x="611" 
d="M28 486v58h212v-58h-64l121 -357q1 -2 12 -47h2q6 32 11 47l123 357h-68v58h206v-58h-56l-179 -486h-82l-182 486h-56z" />
    <glyph glyph-name="W.sc" unicode="&#xe036;" horiz-adv-x="907" 
d="M76 486h-60v58h215v-58h-69l124 -361q10 -28 16 -62h2q8 34 19 62l104 269l-29 92h-61v58h215v-58h-72l115 -360q5 -16 15 -63h2q7 35 16 63l125 360h-77v58h215v-58h-60l-180 -486h-86l-104 308h-2l-119 -308h-86z" />
    <glyph glyph-name="X.sc" unicode="&#xe037;" horiz-adv-x="593" 
d="M89 486h-58v58h222v-58h-72l21 -24l20 -23l82 -109l87 109q20 25 43 45v2h-86v58h211v-58h-54l-163 -206l175 -222h53v-58h-222v58h74q-35 37 -45 50l-85 115l-86 -116q-14 -19 -42 -49h75v-58h-216v58h55l173 218z" />
    <glyph glyph-name="Y.sc" unicode="&#xe038;" horiz-adv-x="611" 
d="M78 486h-55v58h219v-58h-72q38 -43 41 -47l102 -144l103 144q9 14 39 47h-77v58h210v-58h-55l-186 -250v-178h77v-58h-222v58h67v176z" />
    <glyph glyph-name="Yacute.sc" unicode="&#xe039;" horiz-adv-x="611" 
d="M78 486h-55v58h219v-58h-72q38 -43 41 -47l102 -144l103 144q9 14 39 47h-77v58h210v-58h-55l-186 -250v-178h77v-58h-222v58h67v176zM243 644l184 158l52 -44l-187 -156z" />
    <glyph glyph-name="Ydieresis.sc" unicode="&#xe03a;" horiz-adv-x="611" 
d="M78 486h-55v58h219v-58h-72q38 -43 41 -47l102 -144l103 144q9 14 39 47h-77v58h210v-58h-55l-186 -250v-178h77v-58h-222v58h67v176zM138 698q0 25 17 42t42 17t42 -17t17 -42t-17 -42t-42 -17t-42 17t-17 42zM356 698q0 25 17 42t42 17t42 -17t17 -42t-17 -42t-42 -17
t-42 17t-17 42z" />
    <glyph glyph-name="Z.sc" unicode="&#xe03b;" horiz-adv-x="537" 
d="M51 0v63l287 363l22.5 26t27.5 34h-246l-4 -96h-74l4 154h416v-60l-297 -376q-2 -2 -17 -19.5t-24 -30.5h258l8 100h74l-8 -158h-427z" />
    <glyph glyph-name="Zcaron.sc" unicode="&#xe03c;" horiz-adv-x="537" 
d="M51 0v63l287 363l22.5 26t27.5 34h-246l-4 -96h-74l4 154h416v-60l-297 -376q-2 -2 -17 -19.5t-24 -30.5h258l8 100h74l-8 -158h-427zM97 750l49 42l123 -123l123 123l49 -42l-144 -138h-56z" />
    <glyph glyph-name="f_i.sc" unicode="&#xe03d;" horiz-adv-x="796" 
d="M524 0v58h74l3 428h-77v58h229v-58h-74l-3 -428h77v-58h-229zM43 0v58h74l3 428h-77v58h395v-141h-67l-2 83h-171l-1 -187h183v-58h-184l-1 -183h77v-58h-229z" />
    <glyph glyph-name="f_l.sc" unicode="&#xe03e;" horiz-adv-x="962" 
d="M524 0v58h74l3 428h-77v58h223v-58h-68l-3 -428h184l9 90h62l-7 -148h-400zM43 0v58h74l3 428h-77v58h395v-141h-67l-2 83h-171l-1 -187h183v-58h-184l-1 -183h77v-58h-229z" />
    <glyph glyph-name="germandbls.sc" unicode="&#xe03f;" horiz-adv-x="1000" 
d="M56 22v130h67l2 -76q52 -24 114 -24t92.5 29t30.5 68q0 34 -21 51.5t-85 32.5q-121 29 -160.5 64.5t-39.5 96.5q0 73 55 117t163 44q82 0 142 -31v-121h-67l-2 71q-36 18 -87 18q-55 0 -88.5 -22.5t-33.5 -62.5q0 -36 28.5 -57.5t116.5 -41.5q86 -19 123.5 -55t37.5 -97
q0 -71 -55.5 -119t-144.5 -48q-46 0 -103.5 10.5t-84.5 22.5zM556 22v130h67l2 -76q52 -24 114 -24t92.5 29t30.5 68q0 34 -21 51.5t-85 32.5q-121 29 -160.5 64.5t-39.5 96.5q0 73 55 117t163 44q82 0 142 -31v-121h-67l-2 71q-36 18 -87 18q-55 0 -88.5 -22.5t-33.5 -62.5
q0 -36 28.5 -57.5t116.5 -41.5q86 -19 123.5 -55t37.5 -97q0 -71 -55.5 -119t-144.5 -48q-46 0 -103.5 10.5t-84.5 22.5z" />
    <glyph glyph-name="zero.taboldstyle" unicode="&#xf643;" horiz-adv-x="556" 
d="M28 252q0 116 65.5 197t185.5 81q122 0 185.5 -75.5t63.5 -189.5q0 -116 -65.5 -197.5t-183.5 -81.5q-57 0 -101.5 15.5t-72 40.5t-45.5 60.5t-25 72t-7 77.5zM110 260q0 -100 45 -153t124 -53q73 0 120 56.5t47 142.5q0 104 -43.5 156.5t-119.5 52.5q-78 0 -125.5 -53.5
t-47.5 -148.5z" />
    <glyph glyph-name="one.taboldstyle" unicode="&#xf644;" horiz-adv-x="556" 
d="M130 0v63h105l3 390h-108v63h295v-63h-105l-3 -390h108v-63h-295z" />
    <glyph glyph-name="two.taboldstyle" unicode="&#xf645;" horiz-adv-x="556" 
d="M68 0v57q176 119 242.5 184.5t66.5 124.5q0 43 -27 69.5t-76 26.5t-81 -28t-42 -82h-80q25 178 207 178q83 0 132 -43.5t49 -118.5t-76.5 -153.5t-202.5 -147.5l2 -2q21 3 48 3h265v-68h-427z" />
    <glyph glyph-name="three.taboldstyle" unicode="&#xf646;" horiz-adv-x="556" 
d="M61 -166l4 74q84 -40 178 -40q80 0 125 38.5t45 94.5q0 54 -53.5 93.5t-157.5 39.5h-39v63q109 -2 170 45t61 113q0 48 -31 77.5t-83 29.5q-111 0 -130 -106h-82q12 81 67 127.5t150 46.5q85 0 138 -46.5t53 -124.5q0 -65 -42 -115.5t-119 -65.5v-2q70 -3 125 -50
t55 -125q0 -79 -63.5 -140t-178.5 -61q-101 0 -192 34z" />
    <glyph glyph-name="four.taboldstyle" unicode="&#xf647;" horiz-adv-x="556" 
d="M325 108l2 253q0 23 6 71l-2 2q-9 -27 -44 -73l-130 -178q-31 -41 -67 -79q6 0 19.5 1.5t26 2t22.5 0.5h167zM15 45v57l308 414h88l-4 -408h149v-63h-149l-2 -229h-82l2 229h-310z" />
    <glyph glyph-name="five.taboldstyle" unicode="&#xf648;" horiz-adv-x="556" 
d="M61 -170l2 68q55 -22 136 -22q96 0 146.5 43t50.5 109q0 87 -76.5 121t-236.5 39l9 328h369v-68h-289l-5 -192q71 -5 123 -16t98 -35t70 -66.5t24 -102.5q0 -99 -79.5 -163.5t-202.5 -64.5q-71 0 -139 22z" />
    <glyph glyph-name="six.taboldstyle" unicode="&#xf649;" horiz-adv-x="556" 
d="M499 700l-6 -62q-35 5 -75 5q-128 0 -200 -82t-85 -220l2 -2q24 41 69 66t99 25q97 0 151.5 -64.5t54.5 -155.5q0 -89 -59.5 -156.5t-159.5 -67.5q-121 0 -182 87t-61 220q0 191 98 302t267 111q54 0 87 -6zM133 257q0 -50 14 -93.5t51 -76.5t92 -33q64 0 100.5 44.5
t36.5 106.5q0 61 -37 106t-107 45q-56 0 -103 -38t-47 -61z" />
    <glyph glyph-name="seven.taboldstyle" unicode="&#xf64a;" horiz-adv-x="556" 
d="M84 -206l-44 50q64 57 128 158t163 310q54 113 70 136h-348v68h429v-58q-134 -297 -219.5 -441.5t-178.5 -222.5z" />
    <glyph glyph-name="eight.taboldstyle" unicode="&#xf64b;" horiz-adv-x="556" 
d="M40 160q0 59 36 105t130 90q-142 59 -142 178q0 77 64 125t164 48q94 0 149 -46.5t55 -118.5q0 -58 -32 -97.5t-116 -83.5q86 -37 127 -81.5t41 -105.5q0 -84 -60.5 -135.5t-183.5 -51.5q-122 0 -177 49.5t-55 124.5zM146 532q0 -39 27 -68.5t108 -69.5q76 41 104.5 71.5
t28.5 68.5q0 45 -34 74.5t-95 29.5q-62 0 -100.5 -29t-38.5 -77zM357 276l-85 45q-79 -37 -112.5 -73t-33.5 -80q0 -52 38.5 -83t109.5 -31q82 0 121 34t39 83q0 29 -20 57t-57 48z" />
    <glyph glyph-name="nine.taboldstyle" unicode="&#xf64c;" horiz-adv-x="556" 
d="M57 -186l6 62q35 -5 75 -5q128 0 200.5 82t84.5 222l-2 2q-24 -41 -69 -66t-99 -25q-97 0 -151.5 64.5t-54.5 155.5q0 89 59.5 156.5t159.5 67.5q121 0 182 -87t61 -220q0 -192 -98 -303.5t-267 -111.5q-54 0 -87 6zM129 311q0 -61 37 -106t107 -45q56 0 103 38t47 61
q0 50 -14 93.5t-51 76.5t-92 33q-64 0 -100.5 -44.5t-36.5 -106.5z" />
    <glyph glyph-name="dollar.taboldstyle" unicode="&#xf653;" horiz-adv-x="556" 
d="M251 712v128h63v-128q36 0 91.5 -9t83.5 -21v-141h-74v85q-52 18 -103 18l-2 -249q105 -27 142 -49q76 -45 76 -145q0 -94 -63 -148.5t-159 -64.5v-128h-63v128q-38 0 -115 10.5t-99 22.5v155h82v-97q58 -22 132 -23l2 265q-110 20 -163.5 64t-53.5 127q0 89 65 144.5
t158 55.5zM247 406l2 238q-15 0 -34.5 -4.5t-44 -16.5t-40.5 -38.5t-16 -64.5q0 -29 15 -51.5t40 -35t42.5 -18.5t35.5 -9zM308 310l-2 -251q21 2 42.5 9t43.5 21t36 40.5t14 61.5q0 55 -37 81.5t-97 37.5z" />
    <glyph glyph-name="cent.taboldstyle" unicode="&#xf654;" horiz-adv-x="556" 
d="M279 59l2 398q-41 -7 -69.5 -28.5t-42.5 -51t-20 -58.5t-6 -61q0 -74 34.5 -128.5t101.5 -70.5zM344 460l-2 -404q58 0 149 29l-4 -74q-100 -22 -145 -23l-2 -121h-63l2 124q-61 7 -105.5 32t-69 63t-36 80.5t-11.5 91.5q0 123 65.5 189.5t158.5 77.5l2 108h63l-2 -105
q33 0 82 -7.5t73 -18.5v-135h-68v81q-22 9 -87 12z" />
    <glyph glyph-name="breve.sc" unicode="&#xf6f4;" 
d="M-9 777l61 18q12 -46 35.5 -74t69.5 -28t69.5 28t35.5 74l61 -18q-19 -69 -55 -108t-111 -39t-111 39t-55 108z" />
    <glyph glyph-name="caron.sc" unicode="&#xf6f5;" 
d="M-15 750l49 42l123 -123l123 123l49 -42l-144 -138h-56z" />
    <glyph glyph-name="circumflex.sc" unicode="&#xf6f6;" 
d="M34 612l-49 42l144 138h56l144 -138l-49 -42l-123 123z" />
    <glyph glyph-name="dotaccent.sc" unicode="&#xf6f7;" 
d="M98 698q0 25 17 42t42 17t42 -17t17 -42t-17 -42t-42 -17t-42 17t-17 42z" />
    <glyph glyph-name="hungarumlaut.sc" unicode="&#xf6f8;" 
d="M-68 644l184 158l52 -44l-187 -156zM146 644l184 158l52 -44l-187 -156z" />
    <glyph glyph-name="lslash.sc" unicode="&#xf6f9;" horiz-adv-x="481" 
d="M43 0v58h74l1 151l-75 -52v64l76 53l1 212h-77v58h223v-58h-68l-1 -157l123 85v-64l-123 -86l-2 -206h184l9 90h62l-7 -148h-400z" />
    <glyph glyph-name="oe.sc" unicode="&#xf6fa;" horiz-adv-x="833" 
d="M758 404h-64l-4 82h-178l-2 -180h174v-58h-174l-1 -190h186l8 88h68l-8 -146h-311q-28 0 -57 -3q-30 -3 -58 -3q-139 0 -213 74.5t-74 196.5q0 133 77 209t199 76q26 0 58 -3q31 -3 60 -3h308zM431 63l3 418q-48 6 -94 6q-93 0 -148.5 -56t-55.5 -162q0 -99 57 -155.5
t158 -56.5q37 0 80 6z" />
    <glyph glyph-name="ogonek.sc" unicode="&#xf6fb;" 
d="M188 0h62l-47.5 -37t-31 -38t-17.5 -56q0 -51 54 -51q32 0 54 5v-48q-26 -8 -64 -8q-62 0 -90 23.5t-28 71.5q0 43 31.5 81t76.5 57z" />
    <glyph glyph-name="ring.sc" unicode="&#xf6fc;" 
d="M57 700q0 41 29.5 70.5t70.5 29.5t70.5 -29.5t29.5 -70.5t-29.5 -70.5t-70.5 -29.5t-70.5 29.5t-29.5 70.5zM114 700q0 -55 43 -55t43 55t-43 55q-21 0 -32 -15.5t-11 -39.5z" />
    <glyph glyph-name="scaron.sc" unicode="&#xf6fd;" horiz-adv-x="500" 
d="M56 22v130h67l2 -76q52 -24 114 -24t92.5 29t30.5 68q0 34 -21 51.5t-85 32.5q-121 29 -160.5 64.5t-39.5 96.5q0 73 55 117t163 44q82 0 142 -31v-121h-67l-2 71q-36 18 -87 18q-55 0 -88.5 -22.5t-33.5 -62.5q0 -36 28.5 -57.5t116.5 -41.5q86 -19 123.5 -55t37.5 -97
q0 -71 -55.5 -119t-144.5 -48q-46 0 -103.5 10.5t-84.5 22.5zM78 750l49 42l123 -123l123 123l49 -42l-144 -138h-56z" />
    <glyph glyph-name="tilde.sc" unicode="&#xf6fe;" 
d="M34 647l-56 30q22 42 46 61t65 19q38 0 83 -26q41 -23 55 -23q28 0 61 44l48 -34q-37 -46 -54 -58q-23 -15 -53 -15q-40 0 -89 30q-32 19 -47 19q-35 0 -59 -47z" />
    <glyph glyph-name="zcaron.sc" unicode="&#xf6ff;" horiz-adv-x="537" 
d="M51 0v63l287 363l22.5 26t27.5 34h-246l-4 -96h-74l4 154h416v-60l-297 -376q-2 -2 -17 -19.5t-24 -30.5h258l8 100h74l-8 -158h-427zM97 750l49 42l123 -123l123 123l49 -42l-144 -138h-56z" />
    <glyph glyph-name="exclam.sc" unicode="&#xf721;" 
d="M125 236l-10 533h92l-10 -533h-72zM95 50q0 26 18.5 44t43.5 18t43.5 -18t18.5 -44t-18.5 -44t-43.5 -18t-43.5 18t-18.5 44z" />
    <glyph glyph-name="ampersand.sc" unicode="&#xf726;" horiz-adv-x="630" 
d="M578 328v-58h-56q-6 -97 -58 -164q53 -48 89 -48q5 0 11 1t8 1v-60h-26q-65 0 -128 55q-63 -66 -179 -66q-88 0 -137.5 42.5t-49.5 102.5q0 50 25 89.5t87 82.5q-37 40 -50 68.5t-13 60.5q0 53 40 86.5t103 33.5q54 0 89.5 -28t35.5 -75q0 -41 -23 -76.5t-82 -75.5
q62 -68 154 -150q34 46 36 120h-60v58h184zM130 152q0 -46 32 -73t86 -27q71 0 124 47q-47 38 -167 162q-40 -28 -57.5 -52t-17.5 -57zM164 437q0 -18 11.5 -38t46.5 -59q84 51 84 103q0 23 -19 38.5t-49 15.5q-34 0 -54 -17.5t-20 -42.5z" />
    <glyph glyph-name="question.sc" unicode="&#xf73f;" horiz-adv-x="500" 
d="M101 690l-6 67q59 20 121 20q61 0 105 -18t65.5 -47t30.5 -57t9 -56q0 -99 -110 -178l-36 -26l-45.5 -33t-23.5 -25t-10 -31q0 -22 16 -40l12 -14l-67 -36q-43 43 -43 92q0 40 17.5 62t65.5 56l33 22q105 64 105 143q0 49 -34.5 83.5t-108.5 34.5q-42 0 -96 -19zM123 50
q0 26 18.5 44t43.5 18t43.5 -18t18.5 -44t-18.5 -44t-43.5 -18t-43.5 18t-18.5 44z" />
    <glyph glyph-name="grave.sc" unicode="&#xf760;" 
d="M56 802l184 -158l-49 -42l-187 156z" />
    <glyph glyph-name="a.sc" unicode="&#xf761;" horiz-adv-x="611" 
d="M227 265h150l-64 183q-5 16 -8 28h-2q-4 -18 -9 -32zM12 0v58h53l202 486h86l188 -486h58v-58h-215v58h65l-53 149h-190l-59 -149h71v-58h-206z" />
    <glyph glyph-name="b.sc" unicode="&#xf762;" horiz-adv-x="500" 
d="M43 0v58h74l3 428h-77v58h221q170 0 170 -139q0 -41 -29 -75t-71 -41v-2q60 -6 95.5 -40t35.5 -91q0 -65 -47 -110.5t-133 -45.5h-242zM196 253l-1 -195h80q54 0 83 27t29 71q0 97 -137 97h-54zM198 486l-2 -175h48q57 0 84.5 26t27.5 66q0 39 -25 61t-73 22h-60z" />
    <glyph glyph-name="c.sc" unicode="&#xf763;" horiz-adv-x="556" 
d="M436 156h66l-2 -141q-76 -26 -171 -26q-143 0 -216.5 78.5t-73.5 197.5q0 132 85.5 211t217.5 79q86 0 159 -33v-130h-62l-2 79q-44 16 -99 16q-98 0 -155.5 -58.5t-57.5 -157.5q0 -97 57 -155.5t158 -58.5q52 0 90 8z" />
    <glyph glyph-name="d.sc" unicode="&#xf764;" horiz-adv-x="630" 
d="M43 0v58h74l3 428h-77v58h290q124 0 189 -76t65 -191q0 -117 -74.5 -197t-216.5 -80h-253zM198 486l-3 -428h111q93 0 146 65t53 151q0 92 -50 152t-139 60h-118z" />
    <glyph glyph-name="e.sc" unicode="&#xf765;" horiz-adv-x="519" 
d="M43 0v58h74l3 428h-77v58h395l6 -140h-64l-4 82h-178l-2 -180h174v-58h-174l-1 -190h186l8 88h68l-8 -146h-406z" />
    <glyph glyph-name="f.sc" unicode="&#xf766;" horiz-adv-x="481" 
d="M43 0v58h74l3 428h-77v58h395v-141h-67l-2 83h-171l-1 -187h183v-58h-184l-1 -183h77v-58h-229z" />
    <glyph glyph-name="g.sc" unicode="&#xf767;" horiz-adv-x="612" 
d="M434 190h-78v58h213v-58h-60l-6 -175q-78 -26 -174 -26q-143 0 -216.5 78.5t-73.5 197.5q0 132 85.5 211t217.5 79q92 0 170 -33v-130h-62l-2 78q-54 17 -110 17q-98 0 -155.5 -58.5t-57.5 -157.5q0 -97 57 -155.5t158 -58.5q52 0 90 10z" />
    <glyph glyph-name="h.sc" unicode="&#xf768;" horiz-adv-x="667" 
d="M43 0v58h74l3 428h-77v58h229v-58h-74l-2 -180h274l2 180h-77v58h229v-58h-74l-3 -428h77v-58h-229v58h74l1 190h-274l-1 -190h77v-58h-229z" />
    <glyph glyph-name="i.sc" unicode="&#xf769;" horiz-adv-x="315" 
d="M43 0v58h74l3 428h-77v58h229v-58h-74l-3 -428h77v-58h-229z" />
    <glyph glyph-name="j.sc" unicode="&#xf76a;" horiz-adv-x="296" 
d="M5 -140l-28 57q54 30 82 57t43.5 74t15.5 124l2 314h-77v58h229v-58h-74l-2 -313q-1 -126 -43.5 -197.5t-147.5 -115.5z" />
    <glyph glyph-name="k.sc" unicode="&#xf76b;" horiz-adv-x="611" 
d="M43 0v58h74l3 428h-77v58h229v-58h-74l-1 -193l224 193h-67v58h210v-58h-47l-243 -206l249 -222h57v-58h-226v58h67l-224 200l-2 -200h77v-58h-229z" />
    <glyph glyph-name="l.sc" unicode="&#xf76c;" horiz-adv-x="481" 
d="M43 0v58h74l3 428h-77v58h223v-58h-68l-3 -428h184l9 90h62l-7 -148h-400z" />
    <glyph glyph-name="m.sc" unicode="&#xf76d;" horiz-adv-x="796" 
d="M43 0v58h67l3 428h-70v58h183l178 -444l173 444h176v-58h-70l3 -428h67v-58h-209v58h70l-3 395h-2q-9 -29 -16 -49l-160 -404h-72l-158 393q-12 33 -15 55h-3l-3 -390h70v-58h-209z" />
    <glyph glyph-name="n.sc" unicode="&#xf76e;" horiz-adv-x="685" 
d="M45 0v58h74l3 428h-77v58h150l275 -370q19 -26 28 -54h2l3 366h-74v58h211v-58h-65l-3 -486h-68l-284 385q-18 23 -24 46h-2l-3 -373h77v-58h-223z" />
    <glyph glyph-name="o.sc" unicode="&#xf76f;" horiz-adv-x="612" 
d="M306 57q88 0 134.5 58.5t46.5 156.5t-46.5 156.5t-134.5 58.5t-134.5 -58.5t-46.5 -156.5t46.5 -156.5t134.5 -58.5zM39 272q0 118 71.5 200.5t195.5 82.5q71 0 124 -22.5t83.5 -63t45 -89.5t14.5 -108q0 -118 -71.5 -200.5t-195.5 -82.5q-71 0 -124 22.5t-83.5 63
t-45 89.5t-14.5 108z" />
    <glyph glyph-name="p.sc" unicode="&#xf770;" horiz-adv-x="481" 
d="M198 486l-1 -202h72q47 0 74 29t27 75q0 47 -27.5 72.5t-72.5 25.5h-72zM43 0v58h74l3 428h-77v58h241q83 0 125.5 -43t42.5 -112q0 -74 -53 -118.5t-128 -44.5h-75l-1 -168h77v-58h-229z" />
    <glyph glyph-name="q.sc" unicode="&#xf771;" horiz-adv-x="611" 
d="M663 -70v-63q-28 -7 -51 -7q-44 0 -93 18.5t-85.5 41.5t-79.5 44t-74 24q-117 13 -179 85.5t-62 190.5q0 125 71 208t203 83q124 0 192 -76.5t68 -197.5q0 -106 -50.5 -181.5t-129.5 -98.5v-2q42 -1 118 -36t117 -35q11 0 35 2zM125 263q0 -84 46 -145t140 -61
q93 0 134.5 62t41.5 162q0 93 -44.5 149.5t-129.5 56.5q-188 0 -188 -224z" />
    <glyph glyph-name="r.sc" unicode="&#xf772;" horiz-adv-x="537" 
d="M198 486l-1 -187h58q57 0 85.5 26.5t28.5 73.5q0 49 -24.5 68t-84.5 19h-62zM43 0v58h74l3 428h-77v58h214q104 0 147 -36t43 -109q0 -56 -36 -92.5t-93 -46.5v-2q25 -5 39 -17.5t35 -49.5q52 -89 71 -111t50 -22q4 0 16 2v-58q-24 -2 -31 -2q-59 0 -87 23.5t-74 109.5
q-39 73 -58 90.5t-58 17.5h-24l-2 -183h68v-58h-220z" />
    <glyph glyph-name="s.sc" unicode="&#xf773;" horiz-adv-x="500" 
d="M56 22v130h67l2 -76q52 -24 114 -24t92.5 29t30.5 68q0 34 -21 51.5t-85 32.5q-121 29 -160.5 64.5t-39.5 96.5q0 73 55 117t163 44q82 0 142 -31v-121h-67l-2 71q-36 18 -87 18q-55 0 -88.5 -22.5t-33.5 -62.5q0 -36 28.5 -57.5t116.5 -41.5q86 -19 123.5 -55t37.5 -97
q0 -71 -55.5 -119t-144.5 -48q-46 0 -103.5 10.5t-84.5 22.5z" />
    <glyph glyph-name="t.sc" unicode="&#xf774;" horiz-adv-x="555" 
d="M163 0v58h74l3 428h-141l-7 -83h-63l7 141h483l7 -141h-63l-7 83h-138l-3 -428h77v-58h-229z" />
    <glyph glyph-name="u.sc" unicode="&#xf775;" horiz-adv-x="648" 
d="M110 486h-75v58h216v-58h-63q0 -15 -1.5 -123t-1.5 -162q0 -75 29 -112t101 -37q85 0 117.5 38.5t33.5 120.5l3 275h-75v58h211v-58h-58l-3 -257q-1 -128 -55 -184t-173 -56q-110 0 -159.5 49t-49.5 152q0 43 0.5 91.5t1.5 108.5t1 96z" />
    <glyph glyph-name="v.sc" unicode="&#xf776;" horiz-adv-x="611" 
d="M28 486v58h212v-58h-64l121 -357q1 -2 12 -47h2q6 32 11 47l123 357h-68v58h206v-58h-56l-179 -486h-82l-182 486h-56z" />
    <glyph glyph-name="w.sc" unicode="&#xf777;" horiz-adv-x="907" 
d="M76 486h-60v58h215v-58h-69l124 -361q10 -28 16 -62h2q8 34 19 62l104 269l-29 92h-61v58h215v-58h-72l115 -360q5 -16 15 -63h2q7 35 16 63l125 360h-77v58h215v-58h-60l-180 -486h-86l-104 308h-2l-119 -308h-86z" />
    <glyph glyph-name="x.sc" unicode="&#xf778;" horiz-adv-x="593" 
d="M89 486h-58v58h222v-58h-72l21 -24l20 -23l82 -109l87 109q20 25 43 45v2h-86v58h211v-58h-54l-163 -206l175 -222h53v-58h-222v58h74q-35 37 -45 50l-85 115l-86 -116q-14 -19 -42 -49h75v-58h-216v58h55l173 218z" />
    <glyph glyph-name="y.sc" unicode="&#xf779;" horiz-adv-x="611" 
d="M78 486h-55v58h219v-58h-72q38 -43 41 -47l102 -144l103 144q9 14 39 47h-77v58h210v-58h-55l-186 -250v-178h77v-58h-222v58h67v176z" />
    <glyph glyph-name="z.sc" unicode="&#xf77a;" horiz-adv-x="537" 
d="M51 0v63l287 363l22.5 26t27.5 34h-246l-4 -96h-74l4 154h416v-60l-297 -376q-2 -2 -17 -19.5t-24 -30.5h258l8 100h74l-8 -158h-427z" />
    <glyph glyph-name="exclamdown.sc" unicode="&#xf7a1;" 
d="M189 290l10 -533h-92l10 533h72zM219 476q0 -26 -18.5 -44t-43.5 -18t-43.5 18t-18.5 44t18.5 44t43.5 18t43.5 -18t18.5 -44z" />
    <glyph glyph-name="dieresis.sc" unicode="&#xf7a8;" 
d="M-11 698q0 25 17 42t42 17t42 -17t17 -42t-17 -42t-42 -17t-42 17t-17 42zM207 698q0 25 17 42t42 17t42 -17t17 -42t-17 -42t-42 -17t-42 17t-17 42z" />
    <glyph glyph-name="macron.sc" unicode="&#xf7af;" 
d="M16 672v63h282v-63h-282z" />
    <glyph glyph-name="acute.sc" unicode="&#xf7b4;" 
d="M74 644l184 158l52 -44l-187 -156z" />
    <glyph glyph-name="cedilla.sc" unicode="&#xf7b8;" 
d="M128 -109v109h57v-68q42 0 66 -17q27 -21 27 -60q0 -50 -39 -69t-89 -19q-56 0 -90 15l6 52q37 -16 76 -16q62 0 62 37q0 41 -49 41q-5 0 -27 -5z" />
    <glyph glyph-name="questiondown.sc" unicode="&#xf7bf;" horiz-adv-x="500" 
d="M399 -164l6 -67q-59 -20 -121 -20q-61 0 -105 18t-65.5 47t-30.5 57t-9 56q0 99 110 178l36 26l45.5 33t23.5 25t10 31q0 22 -16 40l-12 14l67 36q43 -43 43 -92q0 -40 -17.5 -62t-65.5 -56l-33 -22q-105 -64 -105 -143q0 -49 34.5 -83.5t108.5 -34.5q42 0 96 19z
M377 476q0 -26 -18.5 -44t-43.5 -18t-43.5 18t-18.5 44t18.5 44t43.5 18t43.5 -18t18.5 -44z" />
    <glyph glyph-name="agrave.sc" unicode="&#xf7e0;" horiz-adv-x="611" 
d="M227 265h150l-64 183q-5 16 -8 28h-2q-4 -18 -9 -32zM12 0v58h53l202 486h86l188 -486h58v-58h-215v58h65l-53 149h-190l-59 -149h71v-58h-206zM205 802l184 -158l-49 -42l-187 156z" />
    <glyph glyph-name="aacute.sc" unicode="&#xf7e1;" horiz-adv-x="611" 
d="M227 265h150l-64 183q-5 16 -8 28h-2q-4 -18 -9 -32zM12 0v58h53l202 486h86l188 -486h58v-58h-215v58h65l-53 149h-190l-59 -149h71v-58h-206zM223 644l184 158l52 -44l-187 -156z" />
    <glyph glyph-name="acircumflex.sc" unicode="&#xf7e2;" horiz-adv-x="611" 
d="M227 265h150l-64 183q-5 16 -8 28h-2q-4 -18 -9 -32zM12 0v58h53l202 486h86l188 -486h58v-58h-215v58h65l-53 149h-190l-59 -149h71v-58h-206zM171 612l-49 42l144 138h56l144 -138l-49 -42l-123 123z" />
    <glyph glyph-name="atilde.sc" unicode="&#xf7e3;" horiz-adv-x="611" 
d="M227 265h150l-64 183q-5 16 -8 28h-2q-4 -18 -9 -32zM12 0v58h53l202 486h86l188 -486h58v-58h-215v58h65l-53 149h-190l-59 -149h71v-58h-206zM183 647l-56 30q22 42 46 61t65 19q38 0 83 -26q41 -23 55 -23q28 0 61 44l48 -34q-37 -46 -54 -58q-23 -15 -53 -15
q-40 0 -89 30q-32 19 -47 19q-36 0 -59 -47z" />
    <glyph glyph-name="adieresis.sc" unicode="&#xf7e4;" horiz-adv-x="611" 
d="M227 265h150l-64 183q-5 16 -8 28h-2q-4 -18 -9 -32zM12 0v58h53l202 486h86l188 -486h58v-58h-215v58h65l-53 149h-190l-59 -149h71v-58h-206zM126 698q0 25 17 42t42 17t42 -17t17 -42t-17 -42t-42 -17t-42 17t-17 42zM344 698q0 25 17 42t42 17t42 -17t17 -42t-17 -42
t-42 -17t-42 17t-17 42z" />
    <glyph glyph-name="aring.sc" unicode="&#xf7e5;" horiz-adv-x="611" 
d="M227 265h150l-64 183q-5 16 -8 28h-2q-4 -18 -9 -32zM12 0v58h53l202 486h86l188 -486h58v-58h-215v58h65l-53 149h-190l-59 -149h71v-58h-206zM216 655q0 41 29.5 70.5t70.5 29.5t70.5 -29.5t29.5 -70.5t-29.5 -70.5t-70.5 -29.5t-70.5 29.5t-29.5 70.5zM273 655
q0 -55 43 -55t43 55t-43 55q-21 0 -32 -15.5t-11 -39.5z" />
    <glyph glyph-name="ae.sc" unicode="&#xf7e6;" horiz-adv-x="833" 
d="M12 0v58h53l278 486h395l5 -137h-62l-7 79h-162l-2 -187h168v-58h-168l-1 -183h186l8 88h68l-8 -146h-406v58h74l2 183h-188l-98 -183h71v-58h-206zM375 486l-98 -187h156l2 187h-60z" />
    <glyph glyph-name="ccedilla.sc" unicode="&#xf7e7;" horiz-adv-x="556" 
d="M436 156h66l-2 -141q-75 -26 -168 -26v-57q42 0 66 -17q27 -21 27 -60q0 -50 -39 -69t-89 -19q-56 0 -90 15l6 52q37 -16 76 -16q62 0 62 37q0 41 -49 41q-4 0 -27 -5v102q-117 15 -176.5 90.5t-59.5 181.5q0 132 85.5 211t217.5 79q86 0 159 -33v-130h-62l-2 79
q-44 16 -99 16q-98 0 -155.5 -58.5t-57.5 -157.5q0 -97 57 -155.5t158 -58.5q52 0 90 8z" />
    <glyph glyph-name="egrave.sc" unicode="&#xf7e8;" horiz-adv-x="519" 
d="M43 0v58h74l3 428h-77v58h395l6 -140h-64l-4 82h-178l-2 -180h174v-58h-174l-1 -190h186l8 88h68l-8 -146h-406zM159 802l184 -158l-49 -42l-187 156z" />
    <glyph glyph-name="eacute.sc" unicode="&#xf7e9;" horiz-adv-x="519" 
d="M43 0v58h74l3 428h-77v58h395l6 -140h-64l-4 82h-178l-2 -180h174v-58h-174l-1 -190h186l8 88h68l-8 -146h-406zM177 644l184 158l52 -44l-187 -156z" />
    <glyph glyph-name="ecircumflex.sc" unicode="&#xf7ea;" horiz-adv-x="519" 
d="M43 0v58h74l3 428h-77v58h395l6 -140h-64l-4 82h-178l-2 -180h174v-58h-174l-1 -190h186l8 88h68l-8 -146h-406zM137 612l-49 42l144 138h56l144 -138l-49 -42l-123 123z" />
    <glyph glyph-name="edieresis.sc" unicode="&#xf7eb;" horiz-adv-x="519" 
d="M43 0v58h74l3 428h-77v58h395l6 -140h-64l-4 82h-178l-2 -180h174v-58h-174l-1 -190h186l8 88h68l-8 -146h-406zM92 698q0 25 17 42t42 17t42 -17t17 -42t-17 -42t-42 -17t-42 17t-17 42zM310 698q0 25 17 42t42 17t42 -17t17 -42t-17 -42t-42 -17t-42 17t-17 42z" />
    <glyph glyph-name="igrave.sc" unicode="&#xf7ec;" horiz-adv-x="315" 
d="M43 0v58h74l3 428h-77v58h229v-58h-74l-3 -428h77v-58h-229zM57 802l184 -158l-49 -42l-187 156z" />
    <glyph glyph-name="iacute.sc" unicode="&#xf7ed;" horiz-adv-x="315" 
d="M43 0v58h74l3 428h-77v58h229v-58h-74l-3 -428h77v-58h-229zM75 644l184 158l52 -44l-187 -156z" />
    <glyph glyph-name="icircumflex.sc" unicode="&#xf7ee;" horiz-adv-x="315" 
d="M43 0v58h74l3 428h-77v58h229v-58h-74l-3 -428h77v-58h-229zM35 612l-49 42l144 138h56l144 -138l-49 -42l-123 123z" />
    <glyph glyph-name="idieresis.sc" unicode="&#xf7ef;" horiz-adv-x="315" 
d="M43 0v58h74l3 428h-77v58h229v-58h-74l-3 -428h77v-58h-229zM-10 698q0 25 17 42t42 17t42 -17t17 -42t-17 -42t-42 -17t-42 17t-17 42zM208 698q0 25 17 42t42 17t42 -17t17 -42t-17 -42t-42 -17t-42 17t-17 42z" />
    <glyph glyph-name="eth.sc" unicode="&#xf7f0;" horiz-adv-x="630" 
d="M43 0v58h74l1 190h-75v58h75l2 180h-77v58h290q124 0 189 -76t65 -191q0 -117 -74.5 -197t-216.5 -80h-253zM332 306v-58h-136l-1 -190h111q93 0 146 65t53 151q0 92 -50 152t-139 60h-118l-2 -180h136z" />
    <glyph glyph-name="ntilde.sc" unicode="&#xf7f1;" horiz-adv-x="685" 
d="M45 0v58h74l3 428h-77v58h150l275 -370q19 -26 28 -54h2l3 366h-74v58h211v-58h-65l-3 -486h-68l-284 385q-18 23 -24 46h-2l-3 -373h77v-58h-223zM220 647l-56 30q22 42 46 61t65 19q37 0 83 -26q41 -23 55 -23q28 0 61 44l48 -34q-37 -46 -54 -58q-23 -15 -53 -15
q-40 0 -89 30q-32 19 -47 19q-35 0 -59 -47z" />
    <glyph glyph-name="ograve.sc" unicode="&#xf7f2;" horiz-adv-x="612" 
d="M306 57q88 0 134.5 58.5t46.5 156.5t-46.5 156.5t-134.5 58.5t-134.5 -58.5t-46.5 -156.5t46.5 -156.5t134.5 -58.5zM39 272q0 118 71.5 200.5t195.5 82.5q71 0 124 -22.5t83.5 -63t45 -89.5t14.5 -108q0 -118 -71.5 -200.5t-195.5 -82.5q-71 0 -124 22.5t-83.5 63
t-45 89.5t-14.5 108zM205 802l184 -158l-49 -42l-187 156z" />
    <glyph glyph-name="oacute.sc" unicode="&#xf7f3;" horiz-adv-x="612" 
d="M306 57q88 0 134.5 58.5t46.5 156.5t-46.5 156.5t-134.5 58.5t-134.5 -58.5t-46.5 -156.5t46.5 -156.5t134.5 -58.5zM39 272q0 118 71.5 200.5t195.5 82.5q71 0 124 -22.5t83.5 -63t45 -89.5t14.5 -108q0 -118 -71.5 -200.5t-195.5 -82.5q-71 0 -124 22.5t-83.5 63
t-45 89.5t-14.5 108zM223 644l184 158l52 -44l-187 -156z" />
    <glyph glyph-name="ocircumflex.sc" unicode="&#xf7f4;" horiz-adv-x="612" 
d="M306 57q88 0 134.5 58.5t46.5 156.5t-46.5 156.5t-134.5 58.5t-134.5 -58.5t-46.5 -156.5t46.5 -156.5t134.5 -58.5zM39 272q0 118 71.5 200.5t195.5 82.5q71 0 124 -22.5t83.5 -63t45 -89.5t14.5 -108q0 -118 -71.5 -200.5t-195.5 -82.5q-71 0 -124 22.5t-83.5 63
t-45 89.5t-14.5 108zM183 612l-49 42l144 138h56l144 -138l-49 -42l-123 123z" />
    <glyph glyph-name="otilde.sc" unicode="&#xf7f5;" horiz-adv-x="612" 
d="M306 57q88 0 134.5 58.5t46.5 156.5t-46.5 156.5t-134.5 58.5t-134.5 -58.5t-46.5 -156.5t46.5 -156.5t134.5 -58.5zM39 272q0 118 71.5 200.5t195.5 82.5q71 0 124 -22.5t83.5 -63t45 -89.5t14.5 -108q0 -118 -71.5 -200.5t-195.5 -82.5q-71 0 -124 22.5t-83.5 63
t-45 89.5t-14.5 108zM183 647l-56 30q22 42 46 61t65 19q38 0 83 -26q41 -23 55 -23q28 0 61 44l48 -34q-37 -46 -54 -58q-23 -15 -53 -15q-40 0 -89 30q-32 19 -47 19q-36 0 -59 -47z" />
    <glyph glyph-name="odieresis.sc" unicode="&#xf7f6;" horiz-adv-x="612" 
d="M306 57q88 0 134.5 58.5t46.5 156.5t-46.5 156.5t-134.5 58.5t-134.5 -58.5t-46.5 -156.5t46.5 -156.5t134.5 -58.5zM39 272q0 118 71.5 200.5t195.5 82.5q71 0 124 -22.5t83.5 -63t45 -89.5t14.5 -108q0 -118 -71.5 -200.5t-195.5 -82.5q-71 0 -124 22.5t-83.5 63
t-45 89.5t-14.5 108zM138 698q0 25 17 42t42 17t42 -17t17 -42t-17 -42t-42 -17t-42 17t-17 42zM356 698q0 25 17 42t42 17t42 -17t17 -42t-17 -42t-42 -17t-42 17t-17 42z" />
    <glyph glyph-name="oslash.sc" unicode="&#xf7f8;" horiz-adv-x="612" 
d="M176 110l219 355q-38 22 -89 22q-88 0 -134.5 -58.5t-46.5 -156.5q0 -105 51 -162zM436 433l-219 -354q35 -22 89 -22q88 0 134.5 58.5t46.5 156.5q0 104 -51 161zM117 -83l-44 27l61 98q-95 71 -95 230q0 118 71.5 200.5t195.5 82.5q75 0 129 -26l60 98l44 -27l-60 -97
q94 -73 94 -231q0 -118 -71.5 -200.5t-195.5 -82.5q-77 0 -129 26z" />
    <glyph glyph-name="ugrave.sc" unicode="&#xf7f9;" horiz-adv-x="648" 
d="M110 486h-75v58h216v-58h-63q0 -15 -1.5 -123t-1.5 -162q0 -75 29 -112t101 -37q85 0 117.5 38.5t33.5 120.5l3 275h-75v58h211v-58h-58l-3 -257q-1 -128 -55 -184t-173 -56q-110 0 -159.5 49t-49.5 152q0 43 0.5 91.5t1.5 108.5t1 96zM223 802l184 -158l-49 -42
l-187 156z" />
    <glyph glyph-name="uacute.sc" unicode="&#xf7fa;" horiz-adv-x="648" 
d="M110 486h-75v58h216v-58h-63q0 -15 -1.5 -123t-1.5 -162q0 -75 29 -112t101 -37q85 0 117.5 38.5t33.5 120.5l3 275h-75v58h211v-58h-58l-3 -257q-1 -128 -55 -184t-173 -56q-110 0 -159.5 49t-49.5 152q0 43 0.5 91.5t1.5 108.5t1 96zM241 644l184 158l52 -44l-187 -156
z" />
    <glyph glyph-name="ucircumflex.sc" unicode="&#xf7fb;" horiz-adv-x="648" 
d="M110 486h-75v58h216v-58h-63q0 -15 -1.5 -123t-1.5 -162q0 -75 29 -112t101 -37q85 0 117.5 38.5t33.5 120.5l3 275h-75v58h211v-58h-58l-3 -257q-1 -128 -55 -184t-173 -56q-110 0 -159.5 49t-49.5 152q0 43 0.5 91.5t1.5 108.5t1 96zM201 612l-49 42l144 138h56
l144 -138l-49 -42l-123 123z" />
    <glyph glyph-name="udieresis.sc" unicode="&#xf7fc;" horiz-adv-x="648" 
d="M110 486h-75v58h216v-58h-63q0 -15 -1.5 -123t-1.5 -162q0 -75 29 -112t101 -37q85 0 117.5 38.5t33.5 120.5l3 275h-75v58h211v-58h-58l-3 -257q-1 -128 -55 -184t-173 -56q-110 0 -159.5 49t-49.5 152q0 43 0.5 91.5t1.5 108.5t1 96zM156 698q0 25 17 42t42 17t42 -17
t17 -42t-17 -42t-42 -17t-42 17t-17 42zM374 698q0 25 17 42t42 17t42 -17t17 -42t-17 -42t-42 -17t-42 17t-17 42z" />
    <glyph glyph-name="yacute.sc" unicode="&#xf7fd;" horiz-adv-x="611" 
d="M78 486h-55v58h219v-58h-72q38 -43 41 -47l102 -144l103 144q9 14 39 47h-77v58h210v-58h-55l-186 -250v-178h77v-58h-222v58h67v176zM243 644l184 158l52 -44l-187 -156z" />
    <glyph glyph-name="thorn.sc" unicode="&#xf7fe;" horiz-adv-x="481" 
d="M198 391l-1 -202h72q47 0 74 29t27 75q0 47 -27.5 72.5t-72.5 25.5h-72zM43 0v58h74l3 428h-77v58h229v-58h-74v-37h86q83 0 125.5 -43t42.5 -112q0 -74 -53 -118.5t-128 -44.5h-75l-1 -73h77v-58h-229z" />
    <glyph glyph-name="ydieresis.sc" unicode="&#xf7ff;" horiz-adv-x="611" 
d="M78 486h-55v58h219v-58h-72q38 -43 41 -47l102 -144l103 144q9 14 39 47h-77v58h210v-58h-55l-186 -250v-178h77v-58h-222v58h67v176zM138 698q0 25 17 42t42 17t42 -17t17 -42t-17 -42t-42 -17t-42 17t-17 42zM356 698q0 25 17 42t42 17t42 -17t17 -42t-17 -42t-42 -17
t-42 17t-17 42z" />
    </font>
</defs>
</svg>
